<svg xmlns="http://www.w3.org/2000/svg" xmlns:osb="http://www.openswatchbook.org/uri/2009/osb" xmlns:svg="http://www.w3.org/2000/svg" xmlns:xlink="http://www.w3.org/1999/xlink" id="svg2989" width="128" height="128" version="1.1"><defs id="defs2991"><linearGradient id="linearGradient5163"><stop style="stop-color:#00002a;stop-opacity:1" id="stop5165" offset="0"/><stop style="stop-color:#00002a;stop-opacity:0" id="stop5167" offset="1"/></linearGradient><linearGradient id="linearGradient5053"><stop style="stop-color:#00002b;stop-opacity:1" id="stop5055" offset="0"/><stop style="stop-color:#00002b;stop-opacity:0" id="stop5057" offset="1"/></linearGradient><linearGradient id="linearGradient4409"><stop style="stop-color:#fff;stop-opacity:1" id="stop4411" offset="0"/><stop style="stop-color:#fff;stop-opacity:0" id="stop4413" offset="1"/></linearGradient><linearGradient id="linearGradient7950"><stop style="stop-color:#00002b;stop-opacity:1" id="stop7952" offset="0"/><stop style="stop-color:#00002b;stop-opacity:0" id="stop7954" offset="1"/></linearGradient><linearGradient id="linearGradient7794"><stop style="stop-color:#fff;stop-opacity:1" id="stop7796" offset="0"/><stop style="stop-color:#fff;stop-opacity:0" id="stop7798" offset="1"/></linearGradient><linearGradient id="linearGradient7688"><stop style="stop-color:#fff;stop-opacity:1" id="stop7690" offset="0"/><stop style="stop-color:#fff;stop-opacity:0" id="stop7692" offset="1"/></linearGradient><linearGradient id="linearGradient7592"><stop id="stop7594" offset="0" style="stop-color:#fff;stop-opacity:1"/><stop id="stop7596" offset="1" style="stop-color:#fff;stop-opacity:.05777778"/></linearGradient><linearGradient id="linearGradient10402"><stop style="stop-color:#fff;stop-opacity:1" id="stop10404" offset="0"/><stop style="stop-color:#fff;stop-opacity:0" id="stop10406" offset="1"/></linearGradient><linearGradient id="linearGradient6811"><stop style="stop-color:#000028;stop-opacity:1" id="stop6813" offset="0"/><stop style="stop-color:#000028;stop-opacity:0" id="stop6815" offset="1"/></linearGradient><linearGradient id="linearGradient6791" osb:paint="solid"><stop style="stop-color:#000028;stop-opacity:1" id="stop6793" offset="0"/></linearGradient><radialGradient id="radialGradient10506" cx="64.5" cy="63" r="60.5" fx="64.5" fy="63" gradientUnits="userSpaceOnUse" xlink:href="#linearGradient10402"/><radialGradient id="radialGradient7590" cx="-9.442" cy="13.177" r="71.849" fx="-9.442" fy="13.177" gradientTransform="matrix(-0.08898174,1.0237692,-1.5312355,-0.13308861,15.500252,5.0333865)" gradientUnits="userSpaceOnUse" xlink:href="#linearGradient7592"/><filter id="filter7614"><feGaussianBlur id="feGaussianBlur7616" stdDeviation="2.096"/></filter><filter id="filter7724"><feGaussianBlur id="feGaussianBlur7726" stdDeviation="2.119"/></filter><filter id="filter7790" width="1.094" height="1.336" x="-.047" y="-.168"><feGaussianBlur id="feGaussianBlur7792" stdDeviation="1.352"/></filter><radialGradient id="radialGradient7800" cx="251.075" cy="1000.132" r="38.745" fx="251.075" fy="1000.132" gradientTransform="matrix(0.207825,-1.0302821,1.9254843,0.3884021,-1725.5269,812.90279)" gradientUnits="userSpaceOnUse" xlink:href="#linearGradient7794"/><radialGradient id="radialGradient7810" cx="96.01" cy="1014.589" r="34.99" fx="96.01" fy="1014.589" gradientTransform="matrix(0.54722751,-1.5089805,2.1881688,0.79353323,-2195.6313,345.63023)" gradientUnits="userSpaceOnUse" xlink:href="#linearGradient7688"/><linearGradient id="linearGradient7956" x1="4" x2="301.111" y1="63" y2="198.47" gradientUnits="userSpaceOnUse" xlink:href="#linearGradient7950"/><linearGradient id="linearGradient8021" x1="4" x2="301.111" y1="63" y2="198.47" gradientUnits="userSpaceOnUse" xlink:href="#linearGradient7950"/><radialGradient id="radialGradient8023" cx="-9.442" cy="13.177" r="71.849" fx="-9.442" fy="13.177" gradientTransform="matrix(-0.08898174,1.0237692,-1.5312355,-0.13308861,15.500252,5.0333865)" gradientUnits="userSpaceOnUse" xlink:href="#linearGradient7592"/><radialGradient id="radialGradient8035" cx="251.075" cy="1000.132" r="38.745" fx="251.075" fy="1000.132" gradientTransform="matrix(0.207825,-1.0302821,1.9254843,0.3884021,-1725.5269,812.90279)" gradientUnits="userSpaceOnUse" xlink:href="#linearGradient7794"/><radialGradient id="radialGradient8047" cx="96.01" cy="1014.589" r="34.99" fx="96.01" fy="1014.589" gradientTransform="matrix(0.54722751,-1.5089805,2.1881688,0.79353323,-2195.6313,345.63023)" gradientUnits="userSpaceOnUse" xlink:href="#linearGradient7688"/><linearGradient id="linearGradient8128" x1="4" x2="301.111" y1="63" y2="198.47" gradientUnits="userSpaceOnUse" xlink:href="#linearGradient7950"/><linearGradient id="linearGradient5714" x1="4" x2="301.111" y1="63" y2="198.47" gradientUnits="userSpaceOnUse" xlink:href="#linearGradient7950"/><radialGradient id="radialGradient5716" cx="-9.442" cy="13.177" r="71.849" fx="-9.442" fy="13.177" gradientTransform="matrix(-0.08898174,1.0237692,-1.5312355,-0.13308861,15.500252,5.0333865)" gradientUnits="userSpaceOnUse" xlink:href="#linearGradient7592"/><linearGradient id="linearGradient5760" x1="4" x2="301.111" y1="63" y2="198.47" gradientUnits="userSpaceOnUse" xlink:href="#linearGradient7950"/><radialGradient id="radialGradient5762" cx="-9.442" cy="13.177" r="71.849" fx="-9.442" fy="13.177" gradientTransform="matrix(-0.08898174,1.0237692,-1.5312355,-0.13308861,15.500252,5.0333865)" gradientUnits="userSpaceOnUse" xlink:href="#linearGradient7592"/><linearGradient id="linearGradient5771" x1="4" x2="301.111" y1="63" y2="198.47" gradientUnits="userSpaceOnUse" xlink:href="#linearGradient7950"/><radialGradient id="radialGradient5773" cx="-9.442" cy="13.177" r="71.849" fx="-9.442" fy="13.177" gradientTransform="matrix(-0.08898174,1.0237692,-1.5312355,-0.13308861,15.500252,5.0333865)" gradientUnits="userSpaceOnUse" xlink:href="#linearGradient7592"/><linearGradient id="linearGradient5780" x1="4" x2="301.111" y1="63" y2="198.47" gradientUnits="userSpaceOnUse" xlink:href="#linearGradient7950"/><radialGradient id="radialGradient5782" cx="-9.442" cy="13.177" r="71.849" fx="-9.442" fy="13.177" gradientTransform="matrix(-0.08898174,1.0237692,-1.5312355,-0.13308861,15.500252,5.0333865)" gradientUnits="userSpaceOnUse" xlink:href="#linearGradient7592"/><filter id="filter5982"><feGaussianBlur id="feGaussianBlur5984" stdDeviation="2.939"/></filter><radialGradient id="radialGradient4415" cx="-3.912" cy="-.59" r="44.313" fx="-3.912" fy="-.59" gradientTransform="matrix(0.13117066,0.93653032,-1.3730577,0.19231079,15.358935,6.3085942)" gradientUnits="userSpaceOnUse" xlink:href="#linearGradient4409"/><filter id="filter4417"><feGaussianBlur id="feGaussianBlur4419" stdDeviation="2.078"/></filter><radialGradient id="radialGradient4457" cx="251.075" cy="1000.132" r="38.745" fx="251.075" fy="1000.132" gradientTransform="matrix(0.207825,-1.0302821,1.9254843,0.3884021,-1725.5269,812.90279)" gradientUnits="userSpaceOnUse" xlink:href="#linearGradient7794"/><radialGradient id="radialGradient4467" cx="96.01" cy="1014.589" r="34.99" fx="96.01" fy="1014.589" gradientTransform="matrix(0.54722751,-1.5089805,2.1881688,0.79353323,-2195.6313,345.63023)" gradientUnits="userSpaceOnUse" xlink:href="#linearGradient7688"/><radialGradient id="radialGradient4475" cx="96.01" cy="1014.589" r="34.99" fx="96.01" fy="1014.589" gradientTransform="matrix(0.54722751,-1.5089805,2.1881688,0.79353323,-2195.6313,345.63023)" gradientUnits="userSpaceOnUse" xlink:href="#linearGradient7688"/><radialGradient id="radialGradient4504" cx="251.075" cy="1000.132" r="38.745" fx="251.075" fy="1000.132" gradientTransform="matrix(0.207825,-1.0302821,1.9254843,0.3884021,-1725.5269,812.90279)" gradientUnits="userSpaceOnUse" xlink:href="#linearGradient7794"/><radialGradient id="radialGradient4506" cx="251.075" cy="1000.132" r="38.745" fx="251.075" fy="1000.132" gradientTransform="matrix(0.207825,-1.0302821,1.9254843,0.3884021,-1725.5269,812.90279)" gradientUnits="userSpaceOnUse" xlink:href="#linearGradient7794"/><filter id="filter4538"><feGaussianBlur id="feGaussianBlur4540" stdDeviation="2.644"/></filter><radialGradient id="radialGradient4572" cx="96.01" cy="1014.589" r="34.99" fx="96.01" fy="1014.589" gradientTransform="matrix(0.54722751,-1.5089805,2.1881688,0.79353323,-2195.6313,345.63023)" gradientUnits="userSpaceOnUse" xlink:href="#linearGradient7688"/><filter id="filter4596"><feGaussianBlur id="feGaussianBlur4598" stdDeviation="2.114"/></filter><radialGradient id="radialGradient5231" cx="256.504" cy="174.176" r="97.904" fx="256.504" fy="174.176" gradientTransform="matrix(1,0,0,0.53979271,0,80.157066)" gradientUnits="userSpaceOnUse" xlink:href="#linearGradient5223"/><linearGradient id="linearGradient5217" osb:paint="solid"><stop id="stop5219" offset="0" style="stop-color:red;stop-opacity:1"/></linearGradient><linearGradient id="linearGradient5223"><stop id="stop5225" offset="0" style="stop-color:#530000;stop-opacity:1"/><stop id="stop5227" offset="1" style="stop-color:#530000;stop-opacity:0"/></linearGradient><filter id="filter5039" width="2.026" height="2.162" x="-.513" y="-.581"><feGaussianBlur id="feGaussianBlur5041" stdDeviation="7.264"/></filter><radialGradient id="radialGradient5059" cx="-179.434" cy="932.521" r="18.267" fx="-179.434" fy="932.521" gradientTransform="matrix(1,0,0,0.61679039,0,357.35096)" gradientUnits="userSpaceOnUse" xlink:href="#linearGradient5053"/><filter id="filter5065" width="1.272" height="1.474" x="-.136" y="-.237"><feGaussianBlur id="feGaussianBlur5067" stdDeviation="1.362"/></filter><radialGradient id="radialGradient5141" cx="302.857" cy="516.648" r="20.135" fx="302.857" fy="516.648" gradientTransform="matrix(1,0,0,1.0828607,0,-42.809822)" gradientUnits="userSpaceOnUse" xlink:href="#linearGradient7794"/><radialGradient id="radialGradient5169" cx="302.857" cy="516.648" r="18.393" fx="302.857" fy="516.648" gradientTransform="matrix(1,0,0,1.0815945,0,-42.155643)" gradientUnits="userSpaceOnUse" xlink:href="#linearGradient5163"/><filter id="filter5183" width="2.481" height="2.361" x="-.74" y="-.68"><feGaussianBlur id="feGaussianBlur5185" stdDeviation="10.562"/></filter><radialGradient id="radialGradient5266" cx="-3.912" cy="-.59" r="44.313" fx="-3.912" fy="-.59" gradientTransform="matrix(0.13117066,0.93653032,-1.3730577,0.19231079,15.358935,6.3085942)" gradientUnits="userSpaceOnUse" xlink:href="#linearGradient4409"/><radialGradient id="radialGradient5268" cx="-179.434" cy="932.521" r="18.267" fx="-179.434" fy="932.521" gradientTransform="matrix(1,0,0,0.61679039,0,357.35096)" gradientUnits="userSpaceOnUse" xlink:href="#linearGradient5053"/><radialGradient id="radialGradient5270" cx="302.857" cy="516.648" r="20.135" fx="302.857" fy="516.648" gradientTransform="matrix(1,0,0,1.0828607,0,-42.809822)" gradientUnits="userSpaceOnUse" xlink:href="#linearGradient7794"/><radialGradient id="radialGradient5272" cx="302.857" cy="516.648" r="18.393" fx="302.857" fy="516.648" gradientTransform="matrix(1,0,0,1.0815945,0,-42.155643)" gradientUnits="userSpaceOnUse" xlink:href="#linearGradient5163"/></defs><metadata id="metadata2994"/><g id="layer1" transform="translate(0,-924.3622)"><g id="layer1-1" transform="translate(-1432.0945,-1039.5104)"><path id="path2985" d="M 608.57144,425.21933 A 195.71429,164.28572 0 0 1 413.27524,589.50468 195.71429,164.28572 0 0 1 217.14464,425.92124 195.71429,164.28572 0 0 1 411.60287,260.93698 195.71429,164.28572 0 0 1 608.5643,423.81552" style="fill:#000028;fill-opacity:1;stroke:#00002a;stroke-opacity:1"/><rect id="rect3003" width="85.714" height="65.714" x="291.429" y="395.219" style="fill:#000028;fill-opacity:1;stroke:#00002a;stroke-opacity:1"/><rect id="rect3791" width="48.571" height="168.571" x="385.714" y="589.505" style="fill:#000028;fill-opacity:1;stroke:#00002a;stroke-opacity:1"/><rect id="rect3793" width="136.86" height="91.145" x="260.142" y="838.218" style="fill:#000028;fill-opacity:1;stroke:#00002a;stroke-width:1.28321385;stroke-opacity:1"/><rect id="rect3795" width="142.464" height="96.75" x="505.911" y="761.13" style="fill:#000028;fill-opacity:1;stroke:#00002a;stroke-width:1.39311171;stroke-opacity:1"/><rect id="rect3801" width="79.616" height="82.473" x="565.906" y="561.125" style="fill:#000028;fill-opacity:1;stroke:#00002a;stroke-width:1.38388646;stroke-opacity:1"/><rect id="rect3803" width="85.161" height="85.161" x="183.134" y="541.21" style="fill:#000028;fill-opacity:1;stroke:#00002a;stroke-width:1.55375481;stroke-opacity:1"/><rect id="rect3805" width="116.809" height="49.778" x="123.633" y="422.284" ry="0" transform="matrix(0.96940115,-0.245482,0.33375678,0.94265922,0,0)" style="fill:#fff;fill-opacity:1;stroke:#00002a;stroke-width:.96554506;stroke-opacity:1"/><rect id="rect3807" width="45.696" height="159.982" x="448.581" y="349.514" style="fill:#fff;fill-opacity:1;stroke:#00002a;stroke-width:1.01809108;stroke-opacity:1"/><rect id="rect3812" width="174.224" height="51.367" x="368.602" y="415.25" ry="0" style="fill:#fff;fill-opacity:1;stroke:#00002a;stroke-width:1.06201017;stroke-opacity:1"/><path id="path3814" d="m 320,516.64789 a 17.142857,18.571428 0 0 1 -17.10623,18.57138 17.142857,18.571428 0 0 1 -17.17932,-18.49204 17.142857,18.571428 0 0 1 17.03283,-18.65039 17.142857,18.571428 0 0 1 17.2521,18.41236" transform="matrix(0.85485442,0.06915309,-0.02885834,0.939741,104.69203,17.332036)" style="fill:#fff;fill-opacity:1;stroke:#00002a;stroke-opacity:1"/><rect id="rect3791-9" width="36.887" height="144.415" x="577.931" y="710.364" transform="matrix(0.9981981,0.06000467,-0.26492508,0.964269,0,0)" style="fill:#000028;fill-opacity:1;stroke:#00002a;stroke-width:.80660403;stroke-opacity:1"/><rect style="fill:#000028;fill-opacity:1;stroke:#00002a;stroke-width:.80660403;stroke-opacity:1" id="rect3859" width="36.887" height="144.415" x="487.408" y="769.041" transform="matrix(-0.59009322,0.80733512,0.91182509,0.41057887,0,0)"/><rect id="rect3861" width="36.887" height="144.415" x="713.483" y="440.031" transform="matrix(0.0016174,0.99999869,0.97809281,-0.20816931,0,0)" style="fill:#000028;fill-opacity:1;stroke:#00002a;stroke-width:.80660403;stroke-opacity:1"/><rect style="fill:#000028;fill-opacity:1;stroke:#00002a;stroke-width:.78509092;stroke-opacity:1" id="rect3863" width="33.749" height="149.534" x="457.777" y="-507.602" transform="matrix(-0.16286305,0.98664868,-0.94048304,-0.33984063,0,0)"/></g><rect id="rect3923" width="8.518" height="29.821" x="184.156" y="878.711" style="fill:#fff;fill-opacity:1;stroke:#00002a;stroke-width:.18977743;stroke-opacity:1"/><rect id="rect3925" width="32.476" height="9.575" x="236.326" y="919.508" ry="0" style="fill:#fff;fill-opacity:1;stroke:#00002a;stroke-width:.19796419;stroke-opacity:1"/><path id="path3927" d="m 320,516.64789 a 17.142857,18.571428 0 0 1 -17.10623,18.57138 17.142857,18.571428 0 0 1 -17.17932,-18.49204 17.142857,18.571428 0 0 1 17.03283,-18.65039 17.142857,18.571428 0 0 1 17.2521,18.41236" transform="matrix(0.15934928,0.01289049,-0.00537934,0.17517258,190.16878,805.59911)" style="fill:#fff;fill-opacity:1;stroke:#00002a;stroke-opacity:1"/><rect style="fill:#000028;fill-opacity:1;stroke:#00002a;stroke-opacity:1" id="rect3941" width="85.714" height="65.714" x="139.56" y="330.319"/><rect style="fill:#000028;fill-opacity:1;stroke:#00002a;stroke-width:.21042459;stroke-opacity:1" id="rect3943" width="8.361" height="43.361" x="60.357" y="829.217"/><rect style="fill:#000028;fill-opacity:1;stroke:#00002a;stroke-width:1.28321385;stroke-opacity:1" id="rect3945" width="136.86" height="91.145" x="108.273" y="773.318"/><rect style="fill:#000028;fill-opacity:1;stroke:#00002a;stroke-width:1.39311171;stroke-opacity:1" id="rect3947" width="142.464" height="96.75" x="354.042" y="696.23"/><rect style="fill:#000028;fill-opacity:1;stroke:#00002a;stroke-width:1.38388646;stroke-opacity:1" id="rect3949" width="79.616" height="82.473" x="414.037" y="496.225"/><rect style="fill:#000028;fill-opacity:1;stroke:#00002a;stroke-width:1.55375481;stroke-opacity:1" id="rect3951" width="85.161" height="85.161" x="31.265" y="476.31"/><rect style="fill:#fff;fill-opacity:1;stroke:#00002a;stroke-width:.96554506;stroke-opacity:1" id="rect3953" width="116.809" height="49.778" x="1.614" y="321.66" ry="0" transform="matrix(0.96940115,-0.245482,0.33375678,0.94265922,0,0)"/><rect style="fill:#fff;fill-opacity:1;stroke:#00002a;stroke-width:1.01809108;stroke-opacity:1" id="rect3955" width="45.696" height="159.982" x="296.712" y="284.614"/><rect style="fill:#fff;fill-opacity:1;stroke:#00002a;stroke-width:1.06201017;stroke-opacity:1" id="rect3957" width="174.224" height="51.367" x="216.733" y="350.35" ry="0"/><path style="fill:#fff;fill-opacity:1;stroke:#00002a;stroke-opacity:1" id="path3959" d="m 320,516.64789 a 17.142857,18.571428 0 0 1 -17.10623,18.57138 17.142857,18.571428 0 0 1 -17.17932,-18.49204 17.142857,18.571428 0 0 1 17.03283,-18.65039 17.142857,18.571428 0 0 1 17.2521,18.41236" transform="matrix(0.85485442,0.06915309,-0.02885834,0.939741,-47.176934,-47.568486)"/><rect style="fill:#000028;fill-opacity:1;stroke:#00002a;stroke-width:.80660403;stroke-opacity:1" id="rect3961" width="36.887" height="144.415" x="410.687" y="653.465" transform="matrix(0.9981981,0.06000467,-0.26492508,0.964269,0,0)"/><rect id="rect3963" width="36.887" height="144.415" x="490.655" y="604.587" transform="matrix(-0.59009322,0.80733512,0.91182509,0.41057887,0,0)" style="fill:#000028;fill-opacity:1;stroke:#00002a;stroke-width:.80660403;stroke-opacity:1"/><rect style="fill:#000028;fill-opacity:1;stroke:#00002a;stroke-width:.80660403;stroke-opacity:1" id="rect3965" width="36.887" height="144.415" x="616.293" y="284.921" transform="matrix(0.0016174,0.99999869,0.97809281,-0.20816931,0,0)"/><rect id="rect3967" width="33.749" height="149.534" x="1028.36" y="-324.633" transform="matrix(-0.16286305,0.98664868,-0.94048304,-0.33984063,0,0)" style="fill:#000028;fill-opacity:1;stroke:#00002a;stroke-width:.78509092;stroke-opacity:1"/><path style="fill:#000028;fill-opacity:1;fill-rule:nonzero;stroke:#000010;stroke-width:1;stroke-miterlimit:4;stroke-opacity:.6857143;stroke-dasharray:none" id="path4185" d="M -432,264.36218 A 198,200 0 0 1 -629.57702,464.36173 198,200 0 0 1 -827.99819,265.21668 198,200 0 0 1 -631.26892,64.36629 198,200 0 0 1 -432.00723,262.6532" transform="matrix(1.4066215,-0.42817531,0,0.87911961,363.36242,829.35253)"/><a id="a10397" transform="translate(-22.5,-24)" style="stroke-width:.255;stroke-miterlimit:4;stroke-dasharray:none"><path style="fill:#00002b;fill-opacity:1;fill-rule:nonzero;stroke:#000;stroke-width:.257125;stroke-miterlimit:4;stroke-opacity:1;stroke-dasharray:none" id="path10395" d="m 124.5,63 a 60,60 0 0 1 -60,60 60,60 0 0 1 -60,-60 60,60 0 0 1 60,-60 60,60 0 0 1 60,60 z" transform="matrix(0.99173554,0,0,0.99173554,-151.96694,925.38286)"/></a><g id="g8003" transform="translate(585.24335,298.25622)"><path id="path10371" d="m 124.5,63 a 60,60 0 0 1 -60,60 60,60 0 0 1 -60,-60 60,60 0 0 1 60,-60 60,60 0 0 1 60,60 z" transform="matrix(0.99173554,0,0,0.99173554,0.03305785,925.38286)" style="fill:url(#linearGradient7956);fill-opacity:1;fill-rule:nonzero;stroke:#000;stroke-width:1.00026667;stroke-miterlimit:4;stroke-opacity:1;stroke-dasharray:none"/><path style="fill:url(#radialGradient7590);fill-opacity:1;fill-rule:nonzero;stroke:none;filter:url(#filter7614)" id="path10400" d="m 124.5,63 a 60,60 0 0 1 -60,60 60,60 0 0 1 -60,-60 60,60 0 0 1 60,-60 60,60 0 0 1 60,60 z" transform="matrix(0.99173554,0,0,0.99173554,0.03305785,925.38286)"/></g><path style="fill:url(#radialGradient10506);fill-opacity:1;fill-rule:nonzero;stroke:#000010;stroke-opacity:.6857143" id="path10504" d="m 124.5,63 a 60,60 0 0 1 -60,60 60,60 0 0 1 -60,-60 60,60 0 0 1 60,-60 60,60 0 0 1 60,60 z" transform="matrix(0.99173554,0,0,0.99173554,-174.46694,1021.3829)"/><rect id="rect10736" width="69.332" height="19.332" x="-55.67" y="716.928" style="fill:#edeceb;fill-opacity:1;fill-rule:nonzero;stroke:#000010;stroke-width:.66799998;stroke-miterlimit:4;stroke-opacity:.6857143;stroke-dasharray:none"/><rect style="fill:#666;fill-opacity:1;fill-rule:nonzero;stroke:#000010;stroke-width:.66799998;stroke-miterlimit:4;stroke-opacity:.6857143;stroke-dasharray:none" id="rect10738" width="91.5" height="44.5" x="-189.538" y="756.893"/><g id="g7806" transform="matrix(0.83444278,0,0,0.83444278,620.82881,363.45319)"><path id="rect10596" d="m 62.34375,953.20595 c -4.432,0 -8,3.568 -8,8 l 0,17 -17,0 c -4.432,0 -8,3.568 -8,8 l 0,3.3125 c 0,4.432 3.568,8 8,8 l 17,0 0,16.99995 c 0,4.432 3.568,8 8,8 l 3.3125,0 c 4.432,0 8,-3.568 8,-8 l 0,-16.99995 17,0 c 4.432,0 8,-3.568 8,-8 l 0,-3.3125 c 0,-4.432 -3.568,-8 -8,-8 l -17,0 0,-17 c 0,-4.432 -3.568,-8 -8,-8 l -3.3125,0 z" style="fill:#edeceb;fill-opacity:1;fill-rule:nonzero;stroke:#000010;stroke-width:.66799998;stroke-miterlimit:4;stroke-opacity:.6857143;stroke-dasharray:none"/><path style="fill:url(#radialGradient7810);fill-opacity:1;fill-rule:nonzero;stroke:#000;stroke-width:1.66799998;stroke-miterlimit:4;stroke-opacity:1;stroke-dasharray:none;stroke-dashoffset:0;filter:url(#filter7724)" id="path7686" d="m 62.34375,953.20595 c -4.432,0 -8,3.568 -8,8 l 0,17 -17,0 c -4.432,0 -8,3.568 -8,8 l 0,3.3125 c 0,4.432 3.568,8 8,8 l 17,0 0,16.99995 c 0,4.432 3.568,8 8,8 l 3.3125,0 c 4.432,0 8,-3.568 8,-8 l 0,-16.99995 17,0 c 4.432,0 8,-3.568 8,-8 l 0,-3.3125 c 0,-4.432 -3.568,-8 -8,-8 l -17,0 0,-17 c 0,-4.432 -3.568,-8 -8,-8 l -3.3125,0 z"/></g><g id="g8029" transform="matrix(0.8275169,0,0,0.8275169,345.9648,302.42124)"><rect style="fill:#edeceb;fill-opacity:1;fill-rule:nonzero;stroke:#000010;stroke-width:.66799998;stroke-miterlimit:4;stroke-opacity:.6857143;stroke-dasharray:none" id="rect7677" width="69.332" height="19.332" x="182.224" y="916.012" rx="8" ry="8"/><rect id="rect7784" width="69.332" height="19.332" x="182.224" y="916.012" rx="8" ry="8" style="fill:url(#radialGradient8035);fill-opacity:1;fill-rule:nonzero;stroke:#000010;stroke-width:1.66799998;stroke-miterlimit:4;stroke-opacity:.6857143;stroke-dasharray:none;filter:url(#filter7790)"/></g><g id="g8007" transform="translate(709.39149,157.91039)"><path style="fill:url(#linearGradient8021);fill-opacity:1;fill-rule:nonzero;stroke:#000;stroke-width:1.00026667;stroke-miterlimit:4;stroke-opacity:1;stroke-dasharray:none" id="path8009" d="m 124.5,63 a 60,60 0 0 1 -60,60 60,60 0 0 1 -60,-60 60,60 0 0 1 60,-60 60,60 0 0 1 60,60 z" transform="matrix(0.99173554,0,0,0.99173554,0.03305785,925.38286)"/><path id="path8011" d="m 124.5,63 a 60,60 0 0 1 -60,60 60,60 0 0 1 -60,-60 60,60 0 0 1 60,-60 60,60 0 0 1 60,60 z" transform="matrix(0.99173554,0,0,0.99173554,0.03305785,925.38286)" style="fill:url(#radialGradient8023);fill-opacity:1;fill-rule:nonzero;stroke:none;filter:url(#filter7614)"/></g><g id="g8037" transform="matrix(0.59004015,-0.59004015,0.59004015,0.59004015,-33.45469,595.34029)"><path style="fill:#edeceb;fill-opacity:1;fill-rule:nonzero;stroke:#000010;stroke-width:.66799998;stroke-miterlimit:4;stroke-opacity:.6857143;stroke-dasharray:none" id="path8039" d="m 62.34375,953.20595 c -4.432,0 -8,3.568 -8,8 l 0,17 -17,0 c -4.432,0 -8,3.568 -8,8 l 0,3.3125 c 0,4.432 3.568,8 8,8 l 17,0 0,16.99995 c 0,4.432 3.568,8 8,8 l 3.3125,0 c 4.432,0 8,-3.568 8,-8 l 0,-16.99995 17,0 c 4.432,0 8,-3.568 8,-8 l 0,-3.3125 c 0,-4.432 -3.568,-8 -8,-8 l -17,0 0,-17 c 0,-4.432 -3.568,-8 -8,-8 l -3.3125,0 z"/><path id="path8041" d="m 62.34375,953.20595 c -4.432,0 -8,3.568 -8,8 l 0,17 -17,0 c -4.432,0 -8,3.568 -8,8 l 0,3.3125 c 0,4.432 3.568,8 8,8 l 17,0 0,16.99995 c 0,4.432 3.568,8 8,8 l 3.3125,0 c 4.432,0 8,-3.568 8,-8 l 0,-16.99995 17,0 c 4.432,0 8,-3.568 8,-8 l 0,-3.3125 c 0,-4.432 -3.568,-8 -8,-8 l -17,0 0,-17 c 0,-4.432 -3.568,-8 -8,-8 l -3.3125,0 z" style="fill:url(#radialGradient8047);fill-opacity:1;fill-rule:nonzero;stroke:#000;stroke-width:1.66799998;stroke-miterlimit:4;stroke-opacity:1;stroke-dasharray:none;stroke-dashoffset:0;filter:url(#filter7724)"/></g><g id="g8122" transform="translate(688.88539,266.46265)"><path style="opacity:.51555559;fill:#1a1a1a;fill-opacity:1;fill-rule:nonzero;stroke:none;filter:url(#filter7614)" id="path8126" d="m 124.5,63 a 60,60 0 0 1 -60,60 60,60 0 0 1 -60,-60 60,60 0 0 1 60,-60 60,60 0 0 1 60,60 z" transform="matrix(0.99173554,0,0,0.99173554,25.377271,945.81685)"/></g><g id="g9062" transform="translate(495.2254,-132.68629)"><g id="g9034" transform="translate(-26,0)"><path style="fill:#00002b;fill-opacity:1;fill-rule:nonzero;stroke:#00002b;stroke-width:6.9920001;stroke-linecap:butt;stroke-linejoin:miter;stroke-miterlimit:4;stroke-opacity:1;stroke-dasharray:none;stroke-dashoffset:0" id="path9016" d="M 108.89444,36.783226 A 32.526913,32.526913 0 0 1 76.367531,69.310139 32.526913,32.526913 0 0 1 43.840618,36.783226 32.526913,32.526913 0 0 1 76.367531,4.2563133 32.526913,32.526913 0 0 1 108.89444,36.783226 Z" transform="translate(-12.367531,925.60189)"/><path style="fill:#edeceb;fill-opacity:1;fill-rule:nonzero;stroke:#00002b;stroke-width:6.9920001;stroke-linecap:butt;stroke-linejoin:miter;stroke-miterlimit:4;stroke-opacity:1;stroke-dasharray:none;stroke-dashoffset:0" id="path9028" d="m 76.375,21.5625 c -8.604342,0 -15.21875,6.614408 -15.21875,15.21875 C 61.15625,45.385592 67.770658,52 76.375,52 84.979342,52 91.59375,45.385592 91.59375,36.78125 91.59375,28.176908 84.979342,21.5625 76.375,21.5625 z" transform="translate(-12.367531,925.60189)"/></g><rect id="rect9043" width="19.869" height="81.387" x="-735.46" y="669.564" transform="matrix(0.63563724,-0.77198789,0.77198789,0.63563724,0,0)" style="fill:#00002b;fill-opacity:1;fill-rule:nonzero;stroke:#00002b;stroke-width:.9301635;stroke-linecap:butt;stroke-linejoin:miter;stroke-miterlimit:4;stroke-opacity:1;stroke-dasharray:none;stroke-dashoffset:0"/><rect id="rect9049" width="28.295" height="30.111" x="-712.904" y="709.315" transform="matrix(0.63844217,-0.7696698,0.7606302,0.64918541,0,0)" style="fill:#00002b;fill-opacity:1;fill-rule:nonzero;stroke:#00002b;stroke-width:1.10167253;stroke-linecap:butt;stroke-linejoin:miter;stroke-miterlimit:4;stroke-opacity:1;stroke-dasharray:none;stroke-dashoffset:0"/><path id="path9059" d="m -702.8125,719.40625 0,9.9375 8.125,0 0,-9.9375 -8.125,0 z" transform="matrix(0.63844217,-0.7696698,0.7606302,0.64918541,0,0)" style="fill:#edeceb;fill-opacity:1;fill-rule:nonzero;stroke:none"/></g><path style="fill:#00002b;fill-opacity:1;fill-rule:nonzero;stroke:#000;stroke-width:1;stroke-miterlimit:4;stroke-opacity:1;stroke-dasharray:none" id="path5706" d="M 72.5,-207.5 A 64.5,61.5 0 0 1 8.0854739,-146.00005 64.5,61.5 0 0 1 -56.499773,-207.337 64.5,61.5 0 0 1 7.743579,-268.99951 64.5,61.5 0 0 1 72.499094,-207.82599" transform="translate(426.89742,1497.9984)"/><g id="g3390" transform="translate(582.55859,54.580315)"><g style="fill:#999;filter:url(#filter5982)" id="g5891" transform="translate(-6.0606668,1.399486)"><path style="fill:#999;fill-opacity:1;fill-rule:nonzero;stroke:none" id="path5903" d="m -702.8125,719.40625 0,9.9375 8.125,0 0,-9.9375 -8.125,0 z m -10.09131,-10.09119 28.29523,0 0,30.11127 -28.29523,0 z m -10.67598,-37.01335 19.86769,-0.0723 1.43893,81.3946 -19.86768,0.0723 z m 27.74326,-38.27633 c -5.58636,-6.62315 -14.91238,-7.49123 -21.45775,-1.99732 -6.54536,5.49392 -7.28258,14.80867 -1.69621,21.43182 5.58636,6.62316 14.91238,7.49123 21.45774,1.99732 6.54537,-5.49392 7.28258,-14.80866 1.69622,-21.43182 z m 9.53474,34.75021 c -13.6654,11.47018 -34.19827,9.55896 -45.86147,-4.26885 -11.66319,-13.8278 -10.04008,-34.33587 3.62532,-45.80605 13.66539,-11.47018 34.19827,-9.55895 45.86147,4.26885 11.66319,13.82781 10.04008,34.33587 -3.62532,45.80605 z" transform="matrix(0.63844217,-0.7696698,0.7606302,0.64918541,0,0)"/></g><g style="fill:#00002b;fill-opacity:1" id="g5952" transform="translate(-4.0606668,-4.6005141)"><path id="path5956" d="m -702.8125,719.40625 0,9.9375 8.125,0 0,-9.9375 -8.125,0 z m -10.09131,-10.09119 28.29523,0 0,30.11127 -28.29523,0 z m -10.67598,-37.01335 19.86769,-0.0723 1.43893,81.3946 -19.86768,0.0723 z m 27.74326,-38.27633 c -5.58636,-6.62315 -14.91238,-7.49123 -21.45775,-1.99732 -6.54536,5.49392 -7.28258,14.80867 -1.69621,21.43182 5.58636,6.62316 14.91238,7.49123 21.45774,1.99732 6.54537,-5.49392 7.28258,-14.80866 1.69622,-21.43182 z m 9.53474,34.75021 c -13.6654,11.47018 -34.19827,9.55896 -45.86147,-4.26885 -11.66319,-13.8278 -10.04008,-34.33587 3.62532,-45.80605 13.66539,-11.47018 34.19827,-9.55895 45.86147,4.26885 11.66319,13.82781 10.04008,34.33587 -3.62532,45.80605 z" transform="matrix(0.63844217,-0.7696698,0.7606302,0.64918541,0,0)" style="fill:#00002b;fill-opacity:1;fill-rule:nonzero;stroke:none"/></g></g><g id="g4214" transform="matrix(0.18640517,0,0,0.18640517,98.703162,874.60487)"><path id="path4216" d="M 608.57144,425.21933 A 195.71429,164.28572 0 0 1 413.27524,589.50468 195.71429,164.28572 0 0 1 217.14464,425.92124 195.71429,164.28572 0 0 1 411.60287,260.93698 195.71429,164.28572 0 0 1 608.5643,423.81552" style="fill:#000028;fill-opacity:1;stroke:#00002a;stroke-opacity:1"/><rect id="rect4218" width="85.714" height="65.714" x="291.429" y="395.219" style="fill:#000028;fill-opacity:1;stroke:#00002a;stroke-opacity:1"/><rect id="rect4220" width="48.571" height="168.571" x="385.714" y="589.505" style="fill:#000028;fill-opacity:1;stroke:#00002a;stroke-opacity:1"/><rect id="rect4222" width="136.86" height="91.145" x="260.142" y="838.218" style="fill:#000028;fill-opacity:1;stroke:#00002a;stroke-width:1.28321385;stroke-opacity:1"/><rect id="rect4224" width="142.464" height="96.75" x="505.911" y="761.13" style="fill:#000028;fill-opacity:1;stroke:#00002a;stroke-width:1.39311171;stroke-opacity:1"/><rect id="rect4226" width="79.616" height="82.473" x="565.906" y="561.125" style="fill:#000028;fill-opacity:1;stroke:#00002a;stroke-width:1.38388646;stroke-opacity:1"/><rect id="rect4228" width="85.161" height="85.161" x="183.134" y="541.21" style="fill:#000028;fill-opacity:1;stroke:#00002a;stroke-width:1.55375481;stroke-opacity:1"/><rect id="rect4230" width="116.809" height="49.778" x="123.633" y="422.284" ry="0" transform="matrix(0.96940115,-0.245482,0.33375678,0.94265922,0,0)" style="fill:#fff;fill-opacity:1;stroke:#00002a;stroke-width:.96554506;stroke-opacity:1"/><rect id="rect4232" width="45.696" height="159.982" x="448.581" y="349.514" style="fill:#fff;fill-opacity:1;stroke:#00002a;stroke-width:1.01809108;stroke-opacity:1"/><rect id="rect4234" width="174.224" height="51.367" x="368.602" y="415.25" ry="0" style="fill:#fff;fill-opacity:1;stroke:#00002a;stroke-width:1.06201017;stroke-opacity:1"/><path id="path4236" d="m 320,516.64789 a 17.142857,18.571428 0 0 1 -17.10623,18.57138 17.142857,18.571428 0 0 1 -17.17932,-18.49204 17.142857,18.571428 0 0 1 17.03283,-18.65039 17.142857,18.571428 0 0 1 17.2521,18.41236" transform="matrix(0.85485442,0.06915309,-0.02885834,0.939741,104.69203,17.332036)" style="fill:#fff;fill-opacity:1;stroke:#00002a;stroke-opacity:1"/><rect id="rect4238" width="36.887" height="144.415" x="577.931" y="710.364" transform="matrix(0.9981981,0.06000467,-0.26492508,0.964269,0,0)" style="fill:#000028;fill-opacity:1;stroke:#00002a;stroke-width:.80660403;stroke-opacity:1"/><rect style="fill:#000028;fill-opacity:1;stroke:#00002a;stroke-width:.80660403;stroke-opacity:1" id="rect4240" width="36.887" height="144.415" x="487.408" y="769.041" transform="matrix(-0.59009322,0.80733512,0.91182509,0.41057887,0,0)"/><rect id="rect4242" width="36.887" height="144.415" x="713.483" y="440.031" transform="matrix(0.0016174,0.99999869,0.97809281,-0.20816931,0,0)" style="fill:#000028;fill-opacity:1;stroke:#00002a;stroke-width:.80660403;stroke-opacity:1"/><rect style="fill:#000028;fill-opacity:1;stroke:#00002a;stroke-width:.78509092;stroke-opacity:1" id="rect4244" width="33.749" height="149.534" x="457.777" y="-507.602" transform="matrix(-0.16286305,0.98664868,-0.94048304,-0.33984063,0,0)"/></g><path style="fill:none;stroke:#fff;stroke-width:1px;stroke-linecap:butt;stroke-linejoin:miter;stroke-opacity:1" id="path4293" d="m -51.265242,1029.3812 25.102291,-0.7071"/><path style="fill:#000028;fill-opacity:1;stroke:#00002a;stroke-opacity:1" id="path4334" d="M 608.57144,425.21933 A 195.71429,164.28572 0 0 1 413.27524,589.50468 195.71429,164.28572 0 0 1 217.14464,425.92124 195.71429,164.28572 0 0 1 411.60287,260.93698 195.71429,164.28572 0 0 1 608.5643,423.81552" transform="matrix(0.18640517,0,0,0.18640517,-63.820145,769.21627)"/><g style="opacity:.97000002;fill:#edb9f7;fill-opacity:1;stroke:#fca1f7;stroke-opacity:1" id="g4348" transform="translate(-4.4427,1.01114)"><g id="g5174" style="fill:#edb9f7;fill-opacity:1;stroke:none;stroke-opacity:1"><path style="fill:#edb9f7;fill-opacity:1;stroke:none;stroke-opacity:1" id="path4350" d="M 608.57144,425.21933 A 195.71429,164.28572 0 0 1 413.27524,589.50468 195.71429,164.28572 0 0 1 217.14464,425.92124 195.71429,164.28572 0 0 1 411.60287,260.93698 195.71429,164.28572 0 0 1 608.5643,423.81552" transform="matrix(0.18640517,0,0,0.18640517,-12.958707,877.81603)"/><rect style="fill:#edb9f7;fill-opacity:1;stroke:none;stroke-width:.23411767;stroke-opacity:1" id="rect4352" width="24.766" height="16.766" x="34.943" y="1032.555"/><rect style="fill:#edb9f7;fill-opacity:1;stroke:none;stroke-width:.24170394;stroke-opacity:1" id="rect4354" width="24.758" height="16.758" x="83.861" y="1027.67"/><rect id="rect4356" width="9.054" height="31.423" x="59.348" y="985.889" style="fill:#edb9f7;fill-opacity:1;stroke:none;stroke-width:.18640517;stroke-opacity:1"/><rect style="fill:#edb9f7;fill-opacity:1;stroke:none;stroke-width:.16034098;stroke-opacity:1" id="rect4358" width="6.638" height="31.711" x="334.852" y="975.868" transform="matrix(0.97607621,0.2174287,-0.27420907,0.9616701,0,0)"/><rect id="rect4360" width="6.638" height="31.711" x="904.437" y="-373.086" transform="matrix(-0.31038472,0.95061103,-0.93080564,-0.36551451,0,0)" style="fill:#edb9f7;fill-opacity:1;stroke:none;stroke-width:.16034098;stroke-opacity:1"/><rect style="fill:#edb9f7;fill-opacity:1;stroke:none;stroke-width:.16034098;stroke-opacity:1" id="rect4362" width="6.638" height="31.711" x="-852.108" y="520.635" transform="matrix(0.45201282,-0.89201144,0.86401366,0.50346836,0,0)"/><rect style="fill:#edb9f7;fill-opacity:1;stroke:none;stroke-width:.16034098;stroke-opacity:1" id="rect4364" width="6.638" height="31.711" x="990.518" y="-61.414" transform="matrix(0.12732309,0.9918613,0.98270418,-0.18518235,0,0)"/><path id="path4366" d="M 33.5,86.25 A 10.25,10.25 0 0 1 23.271897,96.499977 10.25,10.25 0 0 1 13.000094,86.293793 10.25,10.25 0 0 1 23.184311,76.00021 10.25,10.25 0 0 1 33.499626,86.162415" transform="translate(6.3284273,901.27641)" style="fill:#edb9f7;fill-opacity:1;fill-rule:nonzero;stroke:none;stroke-opacity:1"/><path style="fill:#edb9f7;fill-opacity:1;fill-rule:nonzero;stroke:none;stroke-opacity:1" id="path4368" d="M 33.5,86.25 A 10.25,10.25 0 0 1 23.271897,96.499977 10.25,10.25 0 0 1 13.000094,86.293793 10.25,10.25 0 0 1 23.184311,76.00021 10.25,10.25 0 0 1 33.499626,86.162415" transform="translate(73.692388,905.21576)"/><rect style="fill:#edb9f7;fill-opacity:1;stroke:none;stroke-width:.13664638;stroke-opacity:1" id="rect1103" width="18.391" height="8.313" x="-500.458" y="858.756" transform="matrix(0.81693085,-0.57673563,0.53157401,0.84701185,0,0)"/><rect id="rect1105" width="18.391" height="8.313" x="-604.716" y="788.338" transform="matrix(-0.82097279,-0.57096731,-0.52559494,0.85073495,0,0)" style="fill:#edb9f7;fill-opacity:1;stroke:none;stroke-width:.13664638;stroke-opacity:1"/><g id="g6666" style="fill:#edb9f7;fill-opacity:1"><rect id="rect1107" width="34.783" height="5.564" x="-52.3" y="1016.119" transform="matrix(-0.99988108,-0.01542129,0.0301502,0.99954538,0,0)" style="fill:#edb9f7;fill-opacity:1;stroke:none;stroke-width:.15373625;stroke-opacity:1"/></g></g></g><rect style="fill:#edeceb;fill-opacity:1;fill-rule:nonzero;stroke:#000010;stroke-width:.66799998;stroke-miterlimit:4;stroke-opacity:.6857143;stroke-dasharray:none" id="rect4405" width="69.332" height="19.332" x="-74.17" y="1014.928"/><rect style="fill:#fff;fill-opacity:1;stroke:#00002a;stroke-width:.17998259;stroke-opacity:1" id="rect4435" width="21.774" height="9.279" x="-85.402" y="981.362" ry="0" transform="matrix(0.96940116,-0.24548197,0.33375679,0.94265922,0,0)"/><rect style="fill:#fff;fill-opacity:1;stroke:#00002a;stroke-width:.19796419;stroke-opacity:1" id="rect4437" width="32.476" height="9.575" x="275.865" y="891.075" ry="0"/><g id="g4449" transform="matrix(0.37427699,-0.09890339,0.06001409,0.49892868,-127.63982,462.03132)"><rect id="rect4451" width="69.332" height="19.332" x="182.224" y="916.012" rx="8" ry="8" style="fill:#edeceb;fill-opacity:1;fill-rule:nonzero;stroke:#000010;stroke-width:.66799998;stroke-miterlimit:4;stroke-opacity:.6857143;stroke-dasharray:none"/><rect style="fill:url(#radialGradient4457);fill-opacity:1;fill-rule:nonzero;stroke:#000010;stroke-width:1.66799998;stroke-miterlimit:4;stroke-opacity:.6857143;stroke-dasharray:none;filter:url(#filter7790)" id="rect4453" width="69.332" height="19.332" x="182.224" y="916.012" rx="8" ry="8"/></g><g id="g4459" transform="matrix(0.49462815,0,0,0.44218519,88.056869,468.72498)"><path style="fill:#edeceb;fill-opacity:1;fill-rule:nonzero;stroke:#000010;stroke-width:.66799998;stroke-miterlimit:4;stroke-opacity:.6857143;stroke-dasharray:none" id="path4461" d="m 62.34375,953.20595 c -4.432,0 -8,3.568 -8,8 l 0,17 -17,0 c -4.432,0 -8,3.568 -8,8 l 0,3.3125 c 0,4.432 3.568,8 8,8 l 17,0 0,16.99995 c 0,4.432 3.568,8 8,8 l 3.3125,0 c 4.432,0 8,-3.568 8,-8 l 0,-16.99995 17,0 c 4.432,0 8,-3.568 8,-8 l 0,-3.3125 c 0,-4.432 -3.568,-8 -8,-8 l -17,0 0,-17 c 0,-4.432 -3.568,-8 -8,-8 l -3.3125,0 z"/><path id="path4463" d="m 62.34375,953.20595 c -4.432,0 -8,3.568 -8,8 l 0,17 -17,0 c -4.432,0 -8,3.568 -8,8 l 0,3.3125 c 0,4.432 3.568,8 8,8 l 17,0 0,16.99995 c 0,4.432 3.568,8 8,8 l 3.3125,0 c 4.432,0 8,-3.568 8,-8 l 0,-16.99995 17,0 c 4.432,0 8,-3.568 8,-8 l 0,-3.3125 c 0,-4.432 -3.568,-8 -8,-8 l -17,0 0,-17 c 0,-4.432 -3.568,-8 -8,-8 l -3.3125,0 z" style="fill:url(#radialGradient4467);fill-opacity:1;fill-rule:nonzero;stroke:#000;stroke-width:1.66799998;stroke-miterlimit:4;stroke-opacity:1;stroke-dasharray:none;stroke-dashoffset:0;filter:url(#filter7724)"/></g><path style="fill:#edeceb;fill-opacity:1;fill-rule:nonzero;stroke:#000010;stroke-width:.255;stroke-miterlimit:4;stroke-opacity:.6857143;stroke-dasharray:none" id="path4471" d="m 84.688081,889.38 c -1.690093,0 -3.05071,1.36062 -3.05071,3.05072 l 0,6.48275 -6.482759,0 c -1.690093,0 -3.05071,1.36062 -3.05071,3.05071 l 0,1.26319 c 0,1.69009 1.360617,3.05071 3.05071,3.05071 l 6.482759,0 0,6.48274 c 0,1.69009 1.360617,3.05071 3.05071,3.05071 l 1.263185,0 c 1.690093,0 3.05071,-1.36062 3.05071,-3.05071 l 0,-6.48274 6.482759,0 c 1.690093,0 3.050708,-1.36062 3.050708,-3.05071 l 0,-1.26319 c 0,-1.69009 -1.360615,-3.05071 -3.050708,-3.05071 l -6.482759,0 0,-6.48275 c 0,-1.6901 -1.360617,-3.05072 -3.05071,-3.05072 l -1.263185,0 z"/><path id="path4473" d="m 62.34375,953.20595 c -4.432,0 -8,3.568 -8,8 l 0,17 -17,0 c -4.432,0 -8,3.568 -8,8 l 0,3.3125 c 0,4.432 3.568,8 8,8 l 17,0 0,16.99995 c 0,4.432 3.568,8 8,8 l 3.3125,0 c 4.432,0 8,-3.568 8,-8 l 0,-16.99995 17,0 c 4.432,0 8,-3.568 8,-8 l 0,-3.3125 c 0,-4.432 -3.568,-8 -8,-8 l -17,0 0,-17 c 0,-4.432 -3.568,-8 -8,-8 l -3.3125,0 z" transform="matrix(0.38133876,0,0,0.38133876,-43.737811,535.07802)" style="fill:url(#radialGradient4572);fill-opacity:1;fill-rule:nonzero;stroke:#000;stroke-width:1.66780843;stroke-miterlimit:4;stroke-opacity:1;stroke-dasharray:none;stroke-dashoffset:0;filter:url(#filter4596)"/><path style="fill:#fff;stroke:#000;stroke-width:.20304252px;stroke-linecap:butt;stroke-linejoin:miter;stroke-opacity:1" id="path4479" d="m -144.39848,847.34251 c 0.25997,10.62524 11.43833,11.41817 11.43833,11.41817 l 5.19923,-0.15859 4.1594,-5.07474 -0.25997,-8.56363 -7.01896,0.95151 0.51992,9.99091 -3.37951,-0.15859 -4.15939,-9.03939 z"/><g id="g4483" transform="matrix(0.47175547,0,0,0.51832012,-53.623946,414.88803)"><rect id="rect4485" width="69.332" height="19.332" x="182.224" y="916.012" rx="8" ry="8" style="fill:#edeceb;fill-opacity:1;fill-rule:nonzero;stroke:#000010;stroke-width:.66799998;stroke-miterlimit:4;stroke-opacity:.6857143;stroke-dasharray:none"/><rect style="fill:url(#radialGradient4506);fill-opacity:1;fill-rule:nonzero;stroke:#000010;stroke-width:1.66799998;stroke-miterlimit:4;stroke-opacity:.6857143;stroke-dasharray:none;filter:url(#filter7790)" id="rect4487" width="69.332" height="19.332" x="182.224" y="916.012" rx="8" ry="8"/></g><g id="g4491" transform="matrix(0,0.43999521,-0.48274611,0,500.56297,798.00503)"><rect id="rect4493" width="69.332" height="19.332" x="182.224" y="916.012" rx="8" ry="8" style="fill:#edeceb;fill-opacity:1;fill-rule:nonzero;stroke:#000010;stroke-width:.66799998;stroke-miterlimit:4;stroke-opacity:.6857143;stroke-dasharray:none"/><rect style="fill:url(#radialGradient4504);fill-opacity:1;fill-rule:nonzero;stroke:#000010;stroke-width:1.66799998;stroke-miterlimit:4;stroke-opacity:.6857143;stroke-dasharray:none;filter:url(#filter7790)" id="rect4495" width="69.332" height="19.332" x="182.224" y="916.012" rx="8" ry="8"/></g><rect id="rect3921" width="21.774" height="9.279" x="-211.244" y="990.036" ry="0" transform="matrix(0.96940116,-0.24548197,0.33375679,0.94265922,0,0)" style="fill:#fff;fill-opacity:1;stroke:#00002a;stroke-width:.17998259;stroke-opacity:1"/><rect id="rect4514" width="34" height="10" x="-43.5" y="926.362" style="opacity:.82222212;fill:#edeceb;fill-opacity:1;fill-rule:nonzero;stroke:none"/><rect id="rect4544" width="24" height="10" x="-265.519" y="856.214" rx="4" ry="4" transform="matrix(0.97092838,-0.23937016,0.23937016,0.97092838,0,0)" style="fill:#edeceb;fill-opacity:1;fill-rule:nonzero;stroke:none"/><rect style="fill:#edeceb;fill-opacity:1;fill-rule:nonzero;stroke:none" id="rect4546" width="30" height="9" x="876.362" y="63.5" rx="4" ry="4" transform="matrix(0,1,-1,0,0,0)"/><rect id="rect4548" width="34" height="10" x="-59" y="866.362" rx="4" ry="4" style="fill:#edeceb;fill-opacity:1;fill-rule:nonzero;stroke:none"/><path style="fill:#edeceb;fill-opacity:1;fill-rule:nonzero;stroke:none" id="path4562" d="m -20.5,947.36218 0,22 c 0,2.216 -1.784,4 -4,4 l -1,0 c -2.216,0 -4,-1.784 -4,-4 l 0,-22 c 0,-2.216 1.784,-4 4,-4 l 1,0 c 2.216,0 4,1.784 4,4 z m -20.5,6.5 26,0 c 2.216,0 4,1.784 4,4 l 0,2 c 0,2.216 -1.784,4 -4,4 l -26,0 c -2.216,0 -4,-1.784 -4,-4 l 0,-2 c 0,-2.216 1.784,-4 4,-4 z"/><path style="fill:#00002b;fill-opacity:1;fill-rule:nonzero;stroke:#00002b;stroke-width:.255;stroke-miterlimit:4;stroke-opacity:1;stroke-dasharray:none" id="path4670" d="m -111.72287,-47.716034 a 6.3639612,6.0104074 0 0 1 -6.35037,6.010394 6.3639612,6.0104074 0 0 1 -6.37749,-5.984715 6.3639612,6.0104074 0 0 1 6.32312,-6.035963 6.3639612,6.0104074 0 0 1 6.40451,5.958926" transform="translate(0,924.3622)"/><g id="layer1-8" transform="translate(1021.751,883.34518)"><flowRoot style="font-style:normal;font-weight:400;line-height:.01%;font-family:sans-serif;letter-spacing:0;word-spacing:0;fill:#000;fill-opacity:1;stroke:none" id="flowRoot2989" xml:space="preserve"><flowRegion id="flowRegion2991" style="font-family:sans-serif"><rect id="rect2993" width="300" height="100" x="185.714" y="383.791" style="font-family:sans-serif"/></flowRegion><flowPara id="flowPara2995" style="font-size:40px;line-height:1.25;font-family:sans-serif"/></flowRoot><path id="text3001" d="m -873.23034,206.15922 c 0.0163,0.007 0.0414,0.0175 0.0585,0.0256 0.0174,-0.006 0.0381,-0.0122 0.0549,-0.0183 -0.0371,-0.004 -0.0753,-0.006 -0.11345,-0.007 z m -5.33944,0.42452 0,11.51695 2.32754,0 0,-11.51695 -2.32754,0 z m 3.86459,0.53797 c -0.0242,0.059 -0.0426,0.1205 -0.0585,0.18298 0.0109,-0.0204 0.021,-0.0424 0.0329,-0.0622 0.006,-0.042 0.0151,-0.0833 0.0256,-0.12077 z m 0.31108,0.18298 c -0.017,0.005 -0.032,0.01 -0.0476,0.0146 0.0142,-8.9e-4 0.0291,-0.003 0.0439,-0.004 8.8e-4,-0.001 0.003,-0.002 0.004,-0.004 1.2e-4,-0.002 -1.2e-4,-0.005 0,-0.007 z m 1.74931,0.34035 c 8.9e-4,0.007 -8.8e-4,0.0151 0,0.0219 0.002,-0.007 0.002,-0.0147 0.004,-0.0219 -10e-4,2.3e-4 -0.003,-2.3e-4 -0.004,0 z m 0,0.0256 c 0.002,0.014 0.006,0.0308 0.007,0.0439 1.1e-4,0.001 -1.2e-4,0.003 0,0.004 8.8e-4,0.008 0.003,0.0141 0.004,0.0219 0.008,2.3e-4 0.0173,-2.4e-4 0.0256,0 0.008,-0.007 0.0176,-0.0113 0.0256,-0.0183 3.5e-4,-8.9e-4 -3.5e-4,-0.003 0,-0.004 -4.4e-4,-0.004 4.4e-4,-0.007 0,-0.011 -0.0188,-0.013 -0.0396,-0.0237 -0.0585,-0.0366 -8.9e-4,-4.4e-4 -0.003,4.5e-4 -0.004,0 z m 0.0366,0.0695 c -0.007,0.006 -0.0141,0.0125 -0.0219,0.0183 0.004,0.0224 0.0106,0.0444 0.0146,0.0659 10e-4,-1.2e-4 0.002,1.1e-4 0.004,0 0.008,-0.0279 0.0134,-0.0565 0.022,-0.0842 -0.006,-2.4e-4 -0.0124,2.3e-4 -0.0183,0 z m -0.007,0.0842 c -0.004,4.4e-4 -0.008,-3.5e-4 -0.011,0 2.3e-4,0.007 -1.2e-4,0.0155 0,0.022 0.004,-0.005 0.008,-0.01 0.011,-0.0146 -4.5e-4,-0.002 4.4e-4,-0.005 0,-0.007 z m -0.0146,-0.0659 c -10e-4,-0.006 -0.003,-0.0121 -0.004,-0.0183 8.8e-4,0.008 -8.9e-4,0.0145 0,0.0219 10e-4,-8.9e-4 0.002,-0.003 0.004,-0.004 z m -0.0329,0.12443 c -0.009,0.008 -0.0167,0.0173 -0.0256,0.0256 0.008,-0.005 0.0175,-0.01 0.0256,-0.0146 -1.2e-4,-0.004 1.2e-4,-0.007 0,-0.011 z m -1.22599,0.6807 c -0.0361,0.0156 -0.0682,0.0303 -0.10613,0.0476 0.0301,0.0242 0.0586,0.0443 0.0915,0.0732 0.006,-8.9e-4 0.0121,-0.003 0.0183,-0.004 3.6e-4,-4.4e-4 0.003,4.4e-4 0.004,0 -6e-5,-0.001 5e-5,-0.003 0,-0.004 -0.002,-0.0378 -0.006,-0.0756 -0.007,-0.11345 z m 1.34676,0.46844 c -0.003,0.004 -0.004,0.008 -0.007,0.011 -3.5e-4,0.006 -0.003,0.0121 -0.004,0.0183 0.004,0.001 0.007,0.003 0.011,0.004 10e-4,-8.8e-4 0.002,-0.003 0.004,-0.004 0.0128,-0.009 0.0241,-0.0198 0.0366,-0.0293 -0.003,0 -0.005,4e-5 -0.007,0 -0.002,1.1e-4 -0.005,-1.1e-4 -0.007,0 -0.007,3.5e-4 -0.0176,-3.5e-4 -0.0256,0 z m 0,0.0329 c -0.004,0.002 -0.008,0.001 -0.011,0.004 -1.2e-4,0.002 1.1e-4,0.005 0,0.007 0.006,-0.003 0.0126,-0.004 0.0183,-0.007 -0.003,-8.9e-4 -0.005,-0.003 -0.007,-0.004 z m -0.011,0.011 c -4.5e-4,-0.003 -0.003,-0.005 -0.004,-0.007 -0.0105,0.006 -0.0182,0.0141 -0.0293,0.0183 0.009,-0.01 0.017,-0.0195 0.0256,-0.0293 -0.0179,-0.007 -0.0373,-0.0123 -0.0549,-0.0219 -0.006,1.1e-4 -0.0118,-2e-5 -0.0183,0 -10e-4,0.0203 -0.003,0.0411 -0.004,0.0622 0.0143,-0.002 0.0304,-0.003 0.0439,-0.007 -0.003,0.003 -0.004,0.008 -0.007,0.011 0.0155,-0.008 0.0324,-0.0137 0.0476,-0.022 -2.3e-4,-0.001 2.4e-4,-0.003 0,-0.004 z m -0.004,-0.007 c 8.9e-4,-4.4e-4 0.003,4.4e-4 0.004,0 1.1e-4,-0.002 -1.2e-4,-0.005 0,-0.007 -0.001,-4.4e-4 -0.002,-0.003 -0.004,-0.004 4.4e-4,0.004 -4.4e-4,0.007 0,0.011 z m -0.34034,0.0842 c -0.0157,0.0121 -0.0316,0.0213 -0.0476,0.0293 8.8e-4,0.004 0.003,0.007 0.004,0.011 0.009,0.004 0.0169,0.007 0.0256,0.011 0.0147,-0.004 0.0295,-0.004 0.0439,-0.007 0.006,-0.001 0.0123,-0.002 0.0183,-0.004 -8.9e-4,-0.001 -0.002,-0.003 -0.004,-0.004 -0.003,-0.002 -0.006,-0.004 -0.007,-0.007 -0.004,-0.0104 -0.007,-0.019 -0.011,-0.0293 -0.008,2.4e-4 -0.0136,-1.1e-4 -0.022,0 z m -7.97075,0.0952 c -1.06803,1e-5 -1.97686,0.37393 -2.7301,1.12717 -0.75325,0.75325 -1.13084,1.66574 -1.13084,2.73376 l 0,4.99178 2.32755,0 0,-4.99178 c 0,-0.4272 0.14685,-0.78728 0.43916,-1.07959 0.30354,-0.30354 0.66701,-0.45379 1.09423,-0.4538 0.57337,1e-5 1.01393,0.24119 1.31748,0.72461 l 0,-2.81794 c -0.42722,-0.15738 -0.86778,-0.2342 -1.31748,-0.23421 z m -13.77496,0.42086 0,4.60385 c 0,1.18046 0.416,2.18728 1.24794,3.01922 0.83195,0.83194 1.83171,1.24794 3.00093,1.24794 1.18045,0 2.18727,-0.416 3.01922,-1.24794 0.83194,-0.83194 1.24793,-1.83876 1.24794,-3.01922 l 0,-4.60385 -2.32754,0 0,4.60385 c -1e-5,0.53964 -0.18867,1.00111 -0.57091,1.38335 -0.37101,0.37101 -0.82908,0.55627 -1.36871,0.55627 -0.5284,0 -0.98281,-0.18526 -1.36506,-0.55627 -0.371,-0.38224 -0.55627,-0.84371 -0.55626,-1.38335 l 0,-4.60385 -2.32755,0 z m 20.21596,0.55627 0,7.87558 2.32755,0 0,-7.87558 -2.32755,0 z" style="font-size:144px;font-style:normal;font-variant:normal;font-weight:400;font-stretch:normal;line-height:125%;letter-spacing:0;word-spacing:0;fill:#000028;fill-opacity:1;fill-rule:nonzero;stroke:none;font-family:GauFontExpositionW;-inkscape-font-specification:GauFontExpositionW"/><rect id="rect5263" width="29.318" height="8.818" x="357.591" y="204.953" style="fill:#162d50;fill-opacity:1;fill-rule:nonzero;stroke:#00002a;stroke-width:.51894063;stroke-opacity:1"/><rect id="rect5265" width="10.605" height="24.083" x="367.857" y="196.901" style="fill:#162d50;fill-opacity:1;fill-rule:nonzero;stroke:#00002a;stroke-width:.3746101;stroke-opacity:1"/><path id="text3001-1" d="m 265.59375,-8.4971674 c 0.13909,0.064 0.35327,0.14923 0.5,0.21875 0.14843,-0.054 0.3254,-0.10403 0.46875,-0.15625 -0.31683,-0.0312 -0.64317,-0.0552 -0.96875,-0.0625 z m -45.59375,3.625 0,98.3437504 19.875,0 0,-98.3437504 -19.875,0 z m 33,4.59375002 c -0.2065,0.50354 -0.36352,1.02893 -0.5,1.56249998 0.0927,-0.17392 0.17957,-0.36208998 0.28125,-0.53124998 0.0552,-0.35847 0.12885,-0.71098 0.21875,-1.03125 z m 2.65625,1.56249998 c -0.14541,0.0444 -0.27306,0.0833 -0.40625,0.125 0.12145,-0.006 0.24816,-0.0254 0.375,-0.0313 0.006,-0.0122 0.0248,-0.0195 0.0313,-0.0313 0.001,-0.0205 -10e-4,-0.0419 0,-0.0625 z m 14.9375,2.90625 c 0.008,0.0602 -0.008,0.12892 0,0.1875 0.0133,-0.062 0.018,-0.12552 0.0313,-0.1875 -0.01,0.002 -0.0213,-0.002 -0.0313,0 z m 0,0.21875 c 0.0155,0.11912 0.0497,0.26252 0.0625,0.375 10e-4,0.01 -10e-4,0.0213 0,0.0313 0.008,0.0701 0.0245,0.11995 0.0313,0.1875 0.0704,0.002 0.14776,-0.002 0.21875,0 0.0718,-0.0576 0.15048,-0.0963 0.21875,-0.15625 0.003,-0.009 -0.003,-0.0218 0,-0.0313 -0.005,-0.0306 0.005,-0.0631 0,-0.0937 -0.16094,-0.11139 -0.3385,-0.20197 -0.5,-0.3125 -0.007,-0.005 -0.0242,0.005 -0.0313,0 z m 0.3125,0.59375 c -0.064,0.0514 -0.12083,0.1067 -0.1875,0.15625 0.0352,0.19123 0.0907,0.37873 0.125,0.5625 0.0105,-10e-4 0.0208,0.001 0.0313,0 0.0665,-0.23834 0.11488,-0.4824 0.1875,-0.71875 -0.0509,-0.002 -0.10565,0.002 -0.15625,0 z m -0.0625,0.71875 c -0.0291,0.004 -0.0642,-0.003 -0.0937,0 0.002,0.0577 -10e-4,0.13193 0,0.1875 0.0302,-0.0421 0.0642,-0.0828 0.0937,-0.125 -0.004,-0.0195 0.004,-0.0429 0,-0.0625 z m -0.125,-0.5625 c -0.01,-0.0529 -0.0214,-0.10281 -0.0313,-0.15625 0.007,0.0666 -0.006,0.12326 0,0.1875 0.0112,-0.008 0.0202,-0.023 0.0313,-0.0313 z m -0.28125,1.0625 c -0.0761,0.0711 -0.14228,0.14801 -0.21875,0.21875 0.0712,-0.0423 0.14907,-0.0828 0.21875,-0.125 -10e-4,-0.0304 10e-4,-0.0634 0,-0.0937 z m -10.46875,5.8125004 c -0.30807,0.13336 -0.5824,0.25858 -0.90625,0.40625 0.25685,0.20658 0.50046,0.37852 0.78125,0.625 0.0521,-0.006 0.10361,-0.0228 0.15625,-0.0313 0.003,-0.005 0.0281,0.005 0.0313,0 -4.4e-4,-0.0104 4.8e-4,-0.0209 0,-0.0313 -0.0149,-0.323 -0.0491,-0.64573 -0.0625,-0.96875 z m 11.5,4 c -0.0245,0.0285 -0.0378,0.0653 -0.0625,0.0937 -0.003,0.0525 -0.0281,0.10372 -0.0313,0.15625 0.0308,0.0105 0.0629,0.0218 0.0937,0.0313 0.0125,-0.009 0.0188,-0.0221 0.0313,-0.0313 0.10904,-0.0806 0.20554,-0.16861 0.3125,-0.25 -0.0217,4e-5 -0.0465,3.2e-4 -0.0625,0 -0.0204,9.6e-4 -0.0418,-8.8e-4 -0.0625,0 -0.0624,0.003 -0.15004,-0.003 -0.21875,0 z m 0,0.28125 c -0.0288,0.0202 -0.0643,0.0131 -0.0937,0.0313 -10e-4,0.0207 0.001,0.0418 0,0.0625 0.0492,-0.0269 0.10734,-0.035 0.15625,-0.0625 -0.0213,-0.006 -0.0412,-0.0247 -0.0625,-0.0313 z m -0.0937,0.0937 c -0.004,-0.0223 -0.0274,-0.0402 -0.0313,-0.0625 -0.0895,0.0531 -0.15515,0.1205 -0.25,0.15625 0.0745,-0.0831 0.14515,-0.16606 0.21875,-0.25 -0.15231,-0.0557 -0.3185,-0.10472 -0.46875,-0.1875 -0.0553,9.4e-4 -0.10103,-2.4e-4 -0.15625,0 -0.01,0.17307 -0.0242,0.35094 -0.0313,0.53125 0.122,-0.0167 0.25939,-0.0241 0.375,-0.0625 -0.0252,0.028 -0.0372,0.0658 -0.0625,0.0937 0.13209,-0.0651 0.27653,-0.11685 0.40625,-0.1875 -0.002,-0.01 0.002,-0.0213 0,-0.0313 z m -0.0313,-0.0625 c 0.008,-0.005 0.0229,0.005 0.0313,0 0.001,-0.0207 -10e-4,-0.0418 0,-0.0625 -0.0122,-0.004 -0.0191,-0.0269 -0.0313,-0.0313 0.005,0.0304 -0.005,0.0633 0,0.0937 z m -2.90625,0.71875 c -0.13368,0.10292 -0.26934,0.18193 -0.40625,0.25 0.009,0.0324 0.0214,0.0625 0.0313,0.0937 0.0742,0.0302 0.14428,0.0641 0.21875,0.0937 0.12567,-0.0286 0.25179,-0.034 0.375,-0.0625 0.0515,-0.0132 0.10496,-0.0175 0.15625,-0.0313 -0.009,-0.0118 -0.0193,-0.0228 -0.0313,-0.0313 -0.0239,-0.017 -0.0509,-0.0301 -0.0625,-0.0625 -0.0319,-0.089 -0.062,-0.16185 -0.0937,-0.25 -0.0713,0.002 -0.1166,-0.001 -0.1875,0 z m -68.0625,0.8125 c -9.12003,8e-5 -16.88052,3.19307 -23.3125,9.625 -6.43201,6.43206 -9.65625,14.2238 -9.65625,23.34375 l 0,42.625 19.875,0 0,-42.625 c -2e-5,-3.64795 1.25398,-6.7227 3.75,-9.21875 2.59197,-2.59194 5.69572,-3.87494 9.34375,-3.875 4.89596,6e-5 8.65795,2.05955 11.25,6.1875 l 0,-24.0625 c -3.64804,-1.34392 -7.41004,-1.99992 -11.25,-2 z m -117.625,3.59375 0,39.3125 c 0,10.08002 3.55224,18.67726 10.65625,25.78125 7.10398,7.104 15.64097,10.65625 25.625,10.65625 10.07995,0 18.67719,-3.55225 25.78125,-10.65625 7.10393,-7.10399 10.65617,-15.70123 10.65625,-25.78125 l 0,-39.3125 -19.875,0 0,39.3125 c -6e-5,4.60803 -1.61105,8.54852 -4.875,11.8125 -3.16805,3.16802 -7.07954,4.75002 -11.6875,4.75 -4.51204,2e-5 -8.39228,-1.58198 -11.65625,-4.75 -3.16803,-3.26398 -4.75002,-7.20447 -4.75,-11.8125 l 0,-39.3125 -19.875,0 z m 172.625,4.75 0,67.25 19.875,0 0,-67.25 -19.875,0 z" style="font-size:144px;font-style:normal;font-variant:normal;font-weight:400;font-stretch:normal;line-height:125%;letter-spacing:0;word-spacing:0;fill:#162d50;fill-opacity:1;fill-rule:nonzero;stroke:none;font-family:GauFontExpositionW;-inkscape-font-specification:GauFontExpositionW"/></g><g id="g5193" transform="translate(-7.0710676,265.16504)"><path style="fill:#333;fill-opacity:1;stroke:#00002a;stroke-width:.18640517;stroke-opacity:1;filter:url(#filter4538)" id="path4403" d="m 68,928.45595 c -20.148539,0 -36.46875,13.71199 -36.46875,30.625 0,15.58725 13.865439,28.45352 31.8125,30.375 v 5.84375 L 43.625,987.58095 c -0.912778,-4.73049 -5.042159,-8.3125 -10.03125,-8.3125 -5.660919,0 -10.25,4.58908 -10.25,10.25 0,5.66092 4.589081,10.25005 10.25,10.25005 3.941012,0 7.347218,-2.20723 9.0625,-5.4688 l 20.6875,8.125 v 10.875 l -0.09375,-0.031 -6.0625,21.2812 h -18.25 v 16.7813 h 24.78125 v -15.5625 l 4.6875,-16.4688 h 3.875 l 14.9375,7.4063 v 11.4687 h 24.75 v -16.75 h -20.5 l -18.75,-9.2812 -0.3125,0.7187 v -10.7812 l 19.5625,-3.6876 c 1.741862,3.1744 5.09231,5.3126 8.96875,5.3126 5.66092,0 10.25,-4.5891 10.25,-10.25005 v -0.0625 c -0.0481,-5.62654 -4.62326,-10.1875 -10.25,-10.1875 -5.113692,0 -9.321977,3.75944 -10.09375,8.65625 l -18.4375,3.46875 v -5.84375 c 18.067281,-1.82881 32.0625,-14.74717 32.0625,-30.40625 v -0.25 C 104.29762,942.02066 88.026904,928.45595 68,928.45595 Z"/><path id="path3907" d="m 64,2.09375 c -20.148539,0 -36.46875,13.711993 -36.46875,30.625 0,15.587245 13.865439,28.453515 31.8125,30.375 V 68.9375 L 39.625,61.21875 c -0.912778,-4.730491 -5.042159,-8.3125 -10.03125,-8.3125 -5.660919,0 -10.25,4.589081 -10.25,10.25 0,5.660919 4.589081,10.25 10.25,10.25 3.941012,0 7.347218,-2.207181 9.0625,-5.46875 l 20.6875,8.125 v 10.875 L 59.25,86.90625 53.1875,108.1875 h -18.25 v 16.78125 h 24.78125 v -15.5625 l 4.6875,-16.46875 h 3.875 l 14.9375,7.40625 v 11.46875 h 24.75 v -16.75 h -20.5 L 68.71875,85.78125 68.40625,86.5 V 75.71875 l 19.5625,-3.6875 c 1.741862,3.174373 5.092314,5.3125 8.96875,5.3125 5.66092,0 10.25,-4.589081 10.25,-10.25 v -0.0625 c -0.0481,-5.626539 -4.62326,-10.1875 -10.25,-10.1875 -5.113692,0 -9.321977,3.759439 -10.09375,8.65625 l -18.4375,3.46875 V 63.125 c 18.067281,-1.828813 32.0625,-14.747172 32.0625,-30.40625 v -0.25 C 100.29762,15.658459 84.026904,2.09375 64,2.09375 Z" transform="translate(0,924.3622)" style="fill:#000028;fill-opacity:1;stroke:#00002a;stroke-width:.18640517;stroke-opacity:1"/><path style="opacity:.86222217;fill:url(#radialGradient4415);fill-opacity:1;stroke:none;stroke-width:.18640517;stroke-opacity:1;filter:url(#filter4417)" id="path4407" d="m 64,2.09375 c -20.148539,0 -36.46875,13.711993 -36.46875,30.625 0,15.587245 13.865439,28.453515 31.8125,30.375 V 68.9375 L 39.625,61.21875 c -0.912778,-4.730491 -5.042159,-8.3125 -10.03125,-8.3125 -5.660919,0 -10.25,4.589081 -10.25,10.25 0,5.660919 4.589081,10.25 10.25,10.25 3.941012,0 7.347218,-2.207181 9.0625,-5.46875 l 20.6875,8.125 v 10.875 L 59.25,86.90625 53.1875,108.1875 h -18.25 v 16.78125 h 24.78125 v -15.5625 l 4.6875,-16.46875 h 3.875 l 14.9375,7.40625 v 11.46875 h 24.75 v -16.75 h -20.5 L 68.71875,85.78125 68.40625,86.5 V 75.71875 l 19.5625,-3.6875 c 1.741862,3.174373 5.092314,5.3125 8.96875,5.3125 5.66092,0 10.25,-4.589081 10.25,-10.25 v -0.0625 c -0.0481,-5.626539 -4.62326,-10.1875 -10.25,-10.1875 -5.113692,0 -9.321977,3.759439 -10.09375,8.65625 l -18.4375,3.46875 V 63.125 c 18.067281,-1.828813 32.0625,-14.747172 32.0625,-30.40625 v -0.25 C 100.29762,15.658459 84.026904,2.09375 64,2.09375 Z" transform="translate(0,924.3622)"/><path id="path4477" d="m 320,516.64789 a 17.142857,18.571428 0 0 1 -17.10623,18.57138 17.142857,18.571428 0 0 1 -17.17932,-18.49204 17.142857,18.571428 0 0 1 17.03283,-18.65039 17.142857,18.571428 0 0 1 17.2521,18.41236" transform="matrix(0.15934928,0.01289049,-0.00537934,0.17517258,6.16878,881.09911)" style="fill:#edeceb;fill-opacity:1;stroke:#00002a;stroke-opacity:1"/><path id="rect4512" d="m 76.5,19.5 c -2.216,0 -4,1.784 -4,4 V 30 H 61 c -2.216,0 -4,1.784 -4,4 v 2 c 0,2.216 1.784,4 4,4 h 11.5 v 5.5 c 0,2.216 1.784,4 4,4 h 1 c 2.216,0 4,-1.784 4,-4 V 40 H 87 c 2.216,0 4,-1.784 4,-4 v -2 c 0,-2.216 -1.784,-4 -4,-4 h -5.5 v -6.5 c 0,-2.216 -1.784,-4 -4,-4 z" transform="translate(0,924.3622)" style="fill:#edeceb;fill-opacity:1;fill-rule:nonzero;stroke:#000010;stroke-width:.255;stroke-miterlimit:4;stroke-dasharray:none;stroke-opacity:.68627451"/><rect id="rect4516" width="24" height="10" x="-191.434" y="927.521" rx="4" ry="4" transform="rotate(-13.84937)" style="fill:#edeceb;fill-opacity:1;fill-rule:nonzero;stroke:#000010;stroke-width:.255;stroke-miterlimit:4;stroke-dasharray:none;stroke-opacity:.68627451"/><rect style="opacity:1;fill:#fff;fill-opacity:1;fill-rule:nonzero;stroke:url(#radialGradient5059);stroke-width:.255;stroke-miterlimit:4;stroke-dasharray:none;stroke-opacity:1;filter:url(#filter5065)" id="rect4574" width="24" height="10" x="-191.434" y="927.521" rx="4" ry="4" transform="rotate(-13.84937)"/><path style="fill:#fff;fill-opacity:1;fill-rule:nonzero;stroke:#00002b;stroke-width:.255;stroke-miterlimit:4;stroke-dasharray:none;stroke-opacity:1;filter:url(#filter5039)" id="path4640" d="m 76.5,19.5 c -2.216,0 -4,1.784 -4,4 V 30 H 61 c -2.216,0 -4,1.784 -4,4 v 2 c 0,2.216 1.784,4 4,4 h 11.5 v 5.5 c 0,2.216 1.784,4 4,4 h 1 c 2.216,0 4,-1.784 4,-4 V 40 H 87 c 2.216,0 4,-1.784 4,-4 v -2 c 0,-2.216 -1.784,-4 -4,-4 h -5.5 v -6.5 c 0,-2.216 -1.784,-4 -4,-4 z" transform="translate(0,924.3622)"/><path style="fill:url(#radialGradient5141);fill-opacity:1;stroke:url(#radialGradient5169);stroke-width:.99831957;stroke-miterlimit:4;stroke-dasharray:none;stroke-opacity:1;filter:url(#filter5183)" id="path5115" d="m 320,516.64789 a 17.142857,18.571428 0 0 1 -17.10623,18.57138 17.142857,18.571428 0 0 1 -17.17932,-18.49204 17.142857,18.571428 0 0 1 17.03283,-18.65039 17.142857,18.571428 0 0 1 17.2521,18.41236" transform="matrix(0.15934928,0.01289049,-0.00537934,0.17517258,6.16878,881.09911)"/></g><g id="g5212" transform="translate(1021.751,883.34518)"><flowRoot id="flowRoot5218" xml:space="preserve" style="font-style:normal;font-weight:400;line-height:.01%;font-family:sans-serif;letter-spacing:0;word-spacing:0;fill:#000;fill-opacity:1;stroke:none"><flowRegion id="flowRegion5220" style="font-family:sans-serif"><rect id="rect5222" width="300" height="100" x="185.714" y="383.791" style="font-family:sans-serif"/></flowRegion><flowPara id="flowPara5224" style="font-size:40px;line-height:1.25;font-family:sans-serif"/></flowRoot><path style="font-size:144px;font-style:normal;font-variant:normal;font-weight:400;font-stretch:normal;line-height:125%;letter-spacing:0;word-spacing:0;fill:#000028;fill-opacity:1;fill-rule:nonzero;stroke:none;font-family:GauFontExpositionW;-inkscape-font-specification:GauFontExpositionW" id="path5230" d="m -873.23034,206.15922 c 0.0163,0.007 0.0414,0.0175 0.0585,0.0256 0.0174,-0.006 0.0381,-0.0122 0.0549,-0.0183 -0.0371,-0.004 -0.0753,-0.006 -0.11345,-0.007 z m -5.33944,0.42452 0,11.51695 2.32754,0 0,-11.51695 -2.32754,0 z m 3.86459,0.53797 c -0.0242,0.059 -0.0426,0.1205 -0.0585,0.18298 0.0109,-0.0204 0.021,-0.0424 0.0329,-0.0622 0.006,-0.042 0.0151,-0.0833 0.0256,-0.12077 z m 0.31108,0.18298 c -0.017,0.005 -0.032,0.01 -0.0476,0.0146 0.0142,-8.9e-4 0.0291,-0.003 0.0439,-0.004 8.8e-4,-0.001 0.003,-0.002 0.004,-0.004 1.2e-4,-0.002 -1.2e-4,-0.005 0,-0.007 z m 1.74931,0.34035 c 8.9e-4,0.007 -8.8e-4,0.0151 0,0.0219 0.002,-0.007 0.002,-0.0147 0.004,-0.0219 -10e-4,2.3e-4 -0.003,-2.3e-4 -0.004,0 z m 0,0.0256 c 0.002,0.014 0.006,0.0308 0.007,0.0439 1.1e-4,0.001 -1.2e-4,0.003 0,0.004 8.8e-4,0.008 0.003,0.0141 0.004,0.0219 0.008,2.3e-4 0.0173,-2.4e-4 0.0256,0 0.008,-0.007 0.0176,-0.0113 0.0256,-0.0183 3.5e-4,-8.9e-4 -3.5e-4,-0.003 0,-0.004 -4.4e-4,-0.004 4.4e-4,-0.007 0,-0.011 -0.0188,-0.013 -0.0396,-0.0237 -0.0585,-0.0366 -8.9e-4,-4.4e-4 -0.003,4.5e-4 -0.004,0 z m 0.0366,0.0695 c -0.007,0.006 -0.0141,0.0125 -0.0219,0.0183 0.004,0.0224 0.0106,0.0444 0.0146,0.0659 10e-4,-1.2e-4 0.002,1.1e-4 0.004,0 0.008,-0.0279 0.0134,-0.0565 0.022,-0.0842 -0.006,-2.4e-4 -0.0124,2.3e-4 -0.0183,0 z m -0.007,0.0842 c -0.004,4.4e-4 -0.008,-3.5e-4 -0.011,0 2.3e-4,0.007 -1.2e-4,0.0155 0,0.022 0.004,-0.005 0.008,-0.01 0.011,-0.0146 -4.5e-4,-0.002 4.4e-4,-0.005 0,-0.007 z m -0.0146,-0.0659 c -10e-4,-0.006 -0.003,-0.0121 -0.004,-0.0183 8.8e-4,0.008 -8.9e-4,0.0145 0,0.0219 10e-4,-8.9e-4 0.002,-0.003 0.004,-0.004 z m -0.0329,0.12443 c -0.009,0.008 -0.0167,0.0173 -0.0256,0.0256 0.008,-0.005 0.0175,-0.01 0.0256,-0.0146 -1.2e-4,-0.004 1.2e-4,-0.007 0,-0.011 z m -1.22599,0.6807 c -0.0361,0.0156 -0.0682,0.0303 -0.10613,0.0476 0.0301,0.0242 0.0586,0.0443 0.0915,0.0732 0.006,-8.9e-4 0.0121,-0.003 0.0183,-0.004 3.6e-4,-4.4e-4 0.003,4.4e-4 0.004,0 -6e-5,-0.001 5e-5,-0.003 0,-0.004 -0.002,-0.0378 -0.006,-0.0756 -0.007,-0.11345 z m 1.34676,0.46844 c -0.003,0.004 -0.004,0.008 -0.007,0.011 -3.5e-4,0.006 -0.003,0.0121 -0.004,0.0183 0.004,0.001 0.007,0.003 0.011,0.004 10e-4,-8.8e-4 0.002,-0.003 0.004,-0.004 0.0128,-0.009 0.0241,-0.0198 0.0366,-0.0293 -0.003,0 -0.005,4e-5 -0.007,0 -0.002,1.1e-4 -0.005,-1.1e-4 -0.007,0 -0.007,3.5e-4 -0.0176,-3.5e-4 -0.0256,0 z m 0,0.0329 c -0.004,0.002 -0.008,0.001 -0.011,0.004 -1.2e-4,0.002 1.1e-4,0.005 0,0.007 0.006,-0.003 0.0126,-0.004 0.0183,-0.007 -0.003,-8.9e-4 -0.005,-0.003 -0.007,-0.004 z m -0.011,0.011 c -4.5e-4,-0.003 -0.003,-0.005 -0.004,-0.007 -0.0105,0.006 -0.0182,0.0141 -0.0293,0.0183 0.009,-0.01 0.017,-0.0195 0.0256,-0.0293 -0.0179,-0.007 -0.0373,-0.0123 -0.0549,-0.0219 -0.006,1.1e-4 -0.0118,-2e-5 -0.0183,0 -10e-4,0.0203 -0.003,0.0411 -0.004,0.0622 0.0143,-0.002 0.0304,-0.003 0.0439,-0.007 -0.003,0.003 -0.004,0.008 -0.007,0.011 0.0155,-0.008 0.0324,-0.0137 0.0476,-0.022 -2.3e-4,-0.001 2.4e-4,-0.003 0,-0.004 z m -0.004,-0.007 c 8.9e-4,-4.4e-4 0.003,4.4e-4 0.004,0 1.1e-4,-0.002 -1.2e-4,-0.005 0,-0.007 -0.001,-4.4e-4 -0.002,-0.003 -0.004,-0.004 4.4e-4,0.004 -4.4e-4,0.007 0,0.011 z m -0.34034,0.0842 c -0.0157,0.0121 -0.0316,0.0213 -0.0476,0.0293 8.8e-4,0.004 0.003,0.007 0.004,0.011 0.009,0.004 0.0169,0.007 0.0256,0.011 0.0147,-0.004 0.0295,-0.004 0.0439,-0.007 0.006,-0.001 0.0123,-0.002 0.0183,-0.004 -8.9e-4,-0.001 -0.002,-0.003 -0.004,-0.004 -0.003,-0.002 -0.006,-0.004 -0.007,-0.007 -0.004,-0.0104 -0.007,-0.019 -0.011,-0.0293 -0.008,2.4e-4 -0.0136,-1.1e-4 -0.022,0 z m -7.97075,0.0952 c -1.06803,1e-5 -1.97686,0.37393 -2.7301,1.12717 -0.75325,0.75325 -1.13084,1.66574 -1.13084,2.73376 l 0,4.99178 2.32755,0 0,-4.99178 c 0,-0.4272 0.14685,-0.78728 0.43916,-1.07959 0.30354,-0.30354 0.66701,-0.45379 1.09423,-0.4538 0.57337,1e-5 1.01393,0.24119 1.31748,0.72461 l 0,-2.81794 c -0.42722,-0.15738 -0.86778,-0.2342 -1.31748,-0.23421 z m -13.77496,0.42086 0,4.60385 c 0,1.18046 0.416,2.18728 1.24794,3.01922 0.83195,0.83194 1.83171,1.24794 3.00093,1.24794 1.18045,0 2.18727,-0.416 3.01922,-1.24794 0.83194,-0.83194 1.24793,-1.83876 1.24794,-3.01922 l 0,-4.60385 -2.32754,0 0,4.60385 c -1e-5,0.53964 -0.18867,1.00111 -0.57091,1.38335 -0.37101,0.37101 -0.82908,0.55627 -1.36871,0.55627 -0.5284,0 -0.98281,-0.18526 -1.36506,-0.55627 -0.371,-0.38224 -0.55627,-0.84371 -0.55626,-1.38335 l 0,-4.60385 -2.32755,0 z m 20.21596,0.55627 0,7.87558 2.32755,0 0,-7.87558 -2.32755,0 z"/><rect style="fill:#162d50;fill-opacity:1;fill-rule:nonzero;stroke:#00002a;stroke-width:.51894063;stroke-opacity:1" id="rect5232" width="29.318" height="8.818" x="357.591" y="204.953"/><rect style="fill:#162d50;fill-opacity:1;fill-rule:nonzero;stroke:#00002a;stroke-width:.3746101;stroke-opacity:1" id="rect5234" width="10.605" height="24.083" x="367.857" y="196.901"/><path style="font-size:144px;font-style:normal;font-variant:normal;font-weight:400;font-stretch:normal;line-height:125%;letter-spacing:0;word-spacing:0;fill:#162d50;fill-opacity:1;fill-rule:nonzero;stroke:none;font-family:GauFontExpositionW;-inkscape-font-specification:GauFontExpositionW" id="path5236" d="m 265.59375,-8.4971674 c 0.13909,0.064 0.35327,0.14923 0.5,0.21875 0.14843,-0.054 0.3254,-0.10403 0.46875,-0.15625 -0.31683,-0.0312 -0.64317,-0.0552 -0.96875,-0.0625 z m -45.59375,3.625 0,98.3437504 19.875,0 0,-98.3437504 -19.875,0 z m 33,4.59375002 c -0.2065,0.50354 -0.36352,1.02893 -0.5,1.56249998 0.0927,-0.17392 0.17957,-0.36208998 0.28125,-0.53124998 0.0552,-0.35847 0.12885,-0.71098 0.21875,-1.03125 z m 2.65625,1.56249998 c -0.14541,0.0444 -0.27306,0.0833 -0.40625,0.125 0.12145,-0.006 0.24816,-0.0254 0.375,-0.0313 0.006,-0.0122 0.0248,-0.0195 0.0313,-0.0313 0.001,-0.0205 -10e-4,-0.0419 0,-0.0625 z m 14.9375,2.90625 c 0.008,0.0602 -0.008,0.12892 0,0.1875 0.0133,-0.062 0.018,-0.12552 0.0313,-0.1875 -0.01,0.002 -0.0213,-0.002 -0.0313,0 z m 0,0.21875 c 0.0155,0.11912 0.0497,0.26252 0.0625,0.375 10e-4,0.01 -10e-4,0.0213 0,0.0313 0.008,0.0701 0.0245,0.11995 0.0313,0.1875 0.0704,0.002 0.14776,-0.002 0.21875,0 0.0718,-0.0576 0.15048,-0.0963 0.21875,-0.15625 0.003,-0.009 -0.003,-0.0218 0,-0.0313 -0.005,-0.0306 0.005,-0.0631 0,-0.0937 -0.16094,-0.11139 -0.3385,-0.20197 -0.5,-0.3125 -0.007,-0.005 -0.0242,0.005 -0.0313,0 z m 0.3125,0.59375 c -0.064,0.0514 -0.12083,0.1067 -0.1875,0.15625 0.0352,0.19123 0.0907,0.37873 0.125,0.5625 0.0105,-10e-4 0.0208,0.001 0.0313,0 0.0665,-0.23834 0.11488,-0.4824 0.1875,-0.71875 -0.0509,-0.002 -0.10565,0.002 -0.15625,0 z m -0.0625,0.71875 c -0.0291,0.004 -0.0642,-0.003 -0.0937,0 0.002,0.0577 -10e-4,0.13193 0,0.1875 0.0302,-0.0421 0.0642,-0.0828 0.0937,-0.125 -0.004,-0.0195 0.004,-0.0429 0,-0.0625 z m -0.125,-0.5625 c -0.01,-0.0529 -0.0214,-0.10281 -0.0313,-0.15625 0.007,0.0666 -0.006,0.12326 0,0.1875 0.0112,-0.008 0.0202,-0.023 0.0313,-0.0313 z m -0.28125,1.0625 c -0.0761,0.0711 -0.14228,0.14801 -0.21875,0.21875 0.0712,-0.0423 0.14907,-0.0828 0.21875,-0.125 -10e-4,-0.0304 10e-4,-0.0634 0,-0.0937 z m -10.46875,5.8125004 c -0.30807,0.13336 -0.5824,0.25858 -0.90625,0.40625 0.25685,0.20658 0.50046,0.37852 0.78125,0.625 0.0521,-0.006 0.10361,-0.0228 0.15625,-0.0313 0.003,-0.005 0.0281,0.005 0.0313,0 -4.4e-4,-0.0104 4.8e-4,-0.0209 0,-0.0313 -0.0149,-0.323 -0.0491,-0.64573 -0.0625,-0.96875 z m 11.5,4 c -0.0245,0.0285 -0.0378,0.0653 -0.0625,0.0937 -0.003,0.0525 -0.0281,0.10372 -0.0313,0.15625 0.0308,0.0105 0.0629,0.0218 0.0937,0.0313 0.0125,-0.009 0.0188,-0.0221 0.0313,-0.0313 0.10904,-0.0806 0.20554,-0.16861 0.3125,-0.25 -0.0217,4e-5 -0.0465,3.2e-4 -0.0625,0 -0.0204,9.6e-4 -0.0418,-8.8e-4 -0.0625,0 -0.0624,0.003 -0.15004,-0.003 -0.21875,0 z m 0,0.28125 c -0.0288,0.0202 -0.0643,0.0131 -0.0937,0.0313 -10e-4,0.0207 0.001,0.0418 0,0.0625 0.0492,-0.0269 0.10734,-0.035 0.15625,-0.0625 -0.0213,-0.006 -0.0412,-0.0247 -0.0625,-0.0313 z m -0.0937,0.0937 c -0.004,-0.0223 -0.0274,-0.0402 -0.0313,-0.0625 -0.0895,0.0531 -0.15515,0.1205 -0.25,0.15625 0.0745,-0.0831 0.14515,-0.16606 0.21875,-0.25 -0.15231,-0.0557 -0.3185,-0.10472 -0.46875,-0.1875 -0.0553,9.4e-4 -0.10103,-2.4e-4 -0.15625,0 -0.01,0.17307 -0.0242,0.35094 -0.0313,0.53125 0.122,-0.0167 0.25939,-0.0241 0.375,-0.0625 -0.0252,0.028 -0.0372,0.0658 -0.0625,0.0937 0.13209,-0.0651 0.27653,-0.11685 0.40625,-0.1875 -0.002,-0.01 0.002,-0.0213 0,-0.0313 z m -0.0313,-0.0625 c 0.008,-0.005 0.0229,0.005 0.0313,0 0.001,-0.0207 -10e-4,-0.0418 0,-0.0625 -0.0122,-0.004 -0.0191,-0.0269 -0.0313,-0.0313 0.005,0.0304 -0.005,0.0633 0,0.0937 z m -2.90625,0.71875 c -0.13368,0.10292 -0.26934,0.18193 -0.40625,0.25 0.009,0.0324 0.0214,0.0625 0.0313,0.0937 0.0742,0.0302 0.14428,0.0641 0.21875,0.0937 0.12567,-0.0286 0.25179,-0.034 0.375,-0.0625 0.0515,-0.0132 0.10496,-0.0175 0.15625,-0.0313 -0.009,-0.0118 -0.0193,-0.0228 -0.0313,-0.0313 -0.0239,-0.017 -0.0509,-0.0301 -0.0625,-0.0625 -0.0319,-0.089 -0.062,-0.16185 -0.0937,-0.25 -0.0713,0.002 -0.1166,-0.001 -0.1875,0 z m -68.0625,0.8125 c -9.12003,8e-5 -16.88052,3.19307 -23.3125,9.625 -6.43201,6.43206 -9.65625,14.2238 -9.65625,23.34375 l 0,42.625 19.875,0 0,-42.625 c -2e-5,-3.64795 1.25398,-6.7227 3.75,-9.21875 2.59197,-2.59194 5.69572,-3.87494 9.34375,-3.875 4.89596,6e-5 8.65795,2.05955 11.25,6.1875 l 0,-24.0625 c -3.64804,-1.34392 -7.41004,-1.99992 -11.25,-2 z m -117.625,3.59375 0,39.3125 c 0,10.08002 3.55224,18.67726 10.65625,25.78125 7.10398,7.104 15.64097,10.65625 25.625,10.65625 10.07995,0 18.67719,-3.55225 25.78125,-10.65625 7.10393,-7.10399 10.65617,-15.70123 10.65625,-25.78125 l 0,-39.3125 -19.875,0 0,39.3125 c -6e-5,4.60803 -1.61105,8.54852 -4.875,11.8125 -3.16805,3.16802 -7.07954,4.75002 -11.6875,4.75 -4.51204,2e-5 -8.39228,-1.58198 -11.65625,-4.75 -3.16803,-3.26398 -4.75002,-7.20447 -4.75,-11.8125 l 0,-39.3125 -19.875,0 z m 172.625,4.75 0,67.25 19.875,0 0,-67.25 -19.875,0 z"/></g><g id="g5246" transform="translate(335.87572,-12.020815)"><path id="path5248" d="m 68,928.45595 c -20.148539,0 -36.46875,13.71199 -36.46875,30.625 0,15.58725 13.865439,28.45352 31.8125,30.375 l 0,5.84375 -19.71875,-7.71875 c -0.912778,-4.73049 -5.042159,-8.3125 -10.03125,-8.3125 -5.660919,0 -10.25,4.58908 -10.25,10.25 0,5.66092 4.589081,10.25005 10.25,10.25005 3.941012,0 7.347218,-2.20723 9.0625,-5.4688 l 20.6875,8.125 0,10.875 -0.09375,-0.031 -6.0625,21.2812 -18.25,0 0,16.7813 24.78125,0 0,-15.5625 4.6875,-16.4688 3.875,0 14.9375,7.4063 0,11.4687 24.75,0 0,-16.75 -20.5,0 -18.75,-9.2812 -0.3125,0.7187 0,-10.7812 19.5625,-3.6876 c 1.741862,3.1744 5.09231,5.3126 8.96875,5.3126 5.66092,0 10.25,-4.5891 10.25,-10.25005 l 0,-0.0625 c -0.0481,-5.62654 -4.62326,-10.1875 -10.25,-10.1875 -5.113692,0 -9.321977,3.75944 -10.09375,8.65625 l -18.4375,3.46875 0,-5.84375 c 18.067281,-1.82881 32.0625,-14.74717 32.0625,-30.40625 l 0,-0.25 C 104.29762,942.02066 88.026904,928.45595 68,928.45595 z" style="fill:#333;fill-opacity:1;stroke:#00002a;stroke-width:.18640517;stroke-opacity:1;filter:url(#filter4538)"/><path style="fill:#000028;fill-opacity:1;stroke:#00002a;stroke-width:.18640517;stroke-opacity:1" id="path5250" d="m 64,2.09375 c -20.148539,0 -36.46875,13.711993 -36.46875,30.625 0,15.587245 13.865439,28.453515 31.8125,30.375 l 0,5.84375 L 39.625,61.21875 c -0.912778,-4.730491 -5.042159,-8.3125 -10.03125,-8.3125 -5.660919,0 -10.25,4.589081 -10.25,10.25 0,5.660919 4.589081,10.25 10.25,10.25 3.941012,0 7.347218,-2.207181 9.0625,-5.46875 l 20.6875,8.125 0,10.875 -0.09375,-0.03125 -6.0625,21.28125 -18.25,0 0,16.78125 24.78125,0 0,-15.5625 4.6875,-16.46875 3.875,0 14.9375,7.40625 0,11.46875 24.75,0 0,-16.75 -20.5,0 -18.75,-9.28125 -0.3125,0.71875 0,-10.78125 19.5625,-3.6875 c 1.741862,3.174373 5.092314,5.3125 8.96875,5.3125 5.66092,0 10.25,-4.589081 10.25,-10.25 l 0,-0.0625 c -0.0481,-5.626539 -4.62326,-10.1875 -10.25,-10.1875 -5.113692,0 -9.321977,3.759439 -10.09375,8.65625 l -18.4375,3.46875 0,-5.84375 c 18.067281,-1.828813 32.0625,-14.747172 32.0625,-30.40625 l 0,-0.25 C 100.29762,15.658459 84.026904,2.09375 64,2.09375 z" transform="translate(0,924.3622)"/><path id="path5252" d="m 64,2.09375 c -20.148539,0 -36.46875,13.711993 -36.46875,30.625 0,15.587245 13.865439,28.453515 31.8125,30.375 l 0,5.84375 L 39.625,61.21875 c -0.912778,-4.730491 -5.042159,-8.3125 -10.03125,-8.3125 -5.660919,0 -10.25,4.589081 -10.25,10.25 0,5.660919 4.589081,10.25 10.25,10.25 3.941012,0 7.347218,-2.207181 9.0625,-5.46875 l 20.6875,8.125 0,10.875 -0.09375,-0.03125 -6.0625,21.28125 -18.25,0 0,16.78125 24.78125,0 0,-15.5625 4.6875,-16.46875 3.875,0 14.9375,7.40625 0,11.46875 24.75,0 0,-16.75 -20.5,0 -18.75,-9.28125 -0.3125,0.71875 0,-10.78125 19.5625,-3.6875 c 1.741862,3.174373 5.092314,5.3125 8.96875,5.3125 5.66092,0 10.25,-4.589081 10.25,-10.25 l 0,-0.0625 c -0.0481,-5.626539 -4.62326,-10.1875 -10.25,-10.1875 -5.113692,0 -9.321977,3.759439 -10.09375,8.65625 l -18.4375,3.46875 0,-5.84375 c 18.067281,-1.828813 32.0625,-14.747172 32.0625,-30.40625 l 0,-0.25 C 100.29762,15.658459 84.026904,2.09375 64,2.09375 z" transform="translate(0,924.3622)" style="opacity:.86222217;fill:url(#radialGradient5266);fill-opacity:1;stroke:none;filter:url(#filter4417)"/><path style="fill:#edeceb;fill-opacity:1;stroke:#00002a;stroke-opacity:1" id="path5254" d="m 320,516.64789 a 17.142857,18.571428 0 0 1 -17.10623,18.57138 17.142857,18.571428 0 0 1 -17.17932,-18.49204 17.142857,18.571428 0 0 1 17.03283,-18.65039 17.142857,18.571428 0 0 1 17.2521,18.41236" transform="matrix(0.15934928,0.01289049,-0.00537934,0.17517258,6.16878,881.09911)"/><path style="fill:#edeceb;fill-opacity:1;fill-rule:nonzero;stroke:#000010;stroke-width:.255;stroke-miterlimit:4;stroke-opacity:.68627451;stroke-dasharray:none" id="path5256" d="m 76.5,19.5 c -2.216,0 -4,1.784 -4,4 l 0,6.5 -11.5,0 c -2.216,0 -4,1.784 -4,4 l 0,2 c 0,2.216 1.784,4 4,4 l 11.5,0 0,5.5 c 0,2.216 1.784,4 4,4 l 1,0 c 2.216,0 4,-1.784 4,-4 l 0,-5.5 5.5,0 c 2.216,0 4,-1.784 4,-4 l 0,-2 c 0,-2.216 -1.784,-4 -4,-4 l -5.5,0 0,-6.5 c 0,-2.216 -1.784,-4 -4,-4 l -1,0 z" transform="translate(0,924.3622)"/><rect style="fill:#edeceb;fill-opacity:1;fill-rule:nonzero;stroke:#000010;stroke-width:.255;stroke-miterlimit:4;stroke-opacity:.68627451;stroke-dasharray:none" id="rect5258" width="24" height="10" x="-191.434" y="927.521" rx="4" ry="4" transform="matrix(0.97092838,-0.23937016,0.23937016,0.97092838,0,0)"/><rect id="rect5260" width="24" height="10" x="-191.434" y="927.521" rx="4" ry="4" transform="matrix(0.97092838,-0.23937016,0.23937016,0.97092838,0,0)" style="fill:#fff;fill-opacity:1;fill-rule:nonzero;stroke:url(#radialGradient5268);stroke-width:.255;stroke-miterlimit:4;stroke-opacity:1;stroke-dasharray:none;filter:url(#filter5065)"/><path id="path5262" d="m 76.5,19.5 c -2.216,0 -4,1.784 -4,4 l 0,6.5 -11.5,0 c -2.216,0 -4,1.784 -4,4 l 0,2 c 0,2.216 1.784,4 4,4 l 11.5,0 0,5.5 c 0,2.216 1.784,4 4,4 l 1,0 c 2.216,0 4,-1.784 4,-4 l 0,-5.5 5.5,0 c 2.216,0 4,-1.784 4,-4 l 0,-2 c 0,-2.216 -1.784,-4 -4,-4 l -5.5,0 0,-6.5 c 0,-2.216 -1.784,-4 -4,-4 l -1,0 z" transform="translate(0,924.3622)" style="fill:#fff;fill-opacity:1;fill-rule:nonzero;stroke:#00002b;stroke-width:.255;stroke-miterlimit:4;stroke-opacity:1;stroke-dasharray:none;filter:url(#filter5039)"/><path id="path5264" d="m 320,516.64789 a 17.142857,18.571428 0 0 1 -17.10623,18.57138 17.142857,18.571428 0 0 1 -17.17932,-18.49204 17.142857,18.571428 0 0 1 17.03283,-18.65039 17.142857,18.571428 0 0 1 17.2521,18.41236" transform="matrix(0.15934928,0.01289049,-0.00537934,0.17517258,6.16878,881.09911)" style="fill:url(#radialGradient5270);fill-opacity:1;stroke:url(#radialGradient5272);stroke-width:.99831957;stroke-miterlimit:4;stroke-opacity:1;stroke-dasharray:none;filter:url(#filter5183)"/></g><rect style="fill:#fff;fill-opacity:1;stroke:#00002a;stroke-width:.19796419;stroke-opacity:1" id="rect1139" width="32.476" height="9.575" x="-273.551" y="968.847" ry="0" transform="rotate(-32.427321)"/><rect id="rect1142" width="32.476" height="9.575" x="703.335" y="717.159" ry="0" transform="rotate(27.250102)" style="fill:#fff;fill-opacity:1;stroke:#00002a;stroke-width:.19796419;stroke-opacity:1"/><rect style="fill:#fff;fill-opacity:1;stroke:#00002a;stroke-width:.96554506;stroke-opacity:1" id="rect1151" width="116.809" height="49.778" x="482.603" y="786.087" ry="0" transform="matrix(0.18070139,-0.04575911,0.06221399,0.17571655,98.703162,874.60487)"/><rect id="rect1154" width="22.657" height="10.487" x="-158.674" y="944.43" ry="0" transform="matrix(0.9559049,-0.2936764,0.117541,0.99306803,0,0)" style="fill:#fff;fill-opacity:1;stroke:#00002a;stroke-width:.19518247;stroke-opacity:1"/><rect style="fill:#fff;fill-opacity:1;stroke:#00002a;stroke-width:.14805573;stroke-opacity:1" id="rect1156" width="18.859" height="7.249" x="-889.418" y="849.838" ry="0" transform="matrix(0.78148679,-0.62392179,0.78966534,0.61353782,0,0)"/><g id="g5140" transform="translate(4.9497472,2.4748737)"><path id="path1100" d="m 82.654513,972.05341 a 2.7406256,3.2547386 0 0 1 -2.734771,3.25473 2.7406256,3.2547386 0 0 1 -2.746456,-3.24083 2.7406256,3.2547386 0 0 1 2.723037,-3.26858 2.7406256,3.2547386 0 0 1 2.75809,3.22686" transform="matrix(0.99674401,0.08063118,-0.03069437,0.99952882,0,0)" style="fill:#fff;fill-opacity:1;stroke:#00002a;stroke-width:.16738582;stroke-opacity:1"/><rect id="rect1144" width="8.643" height="26.17" x="741.816" y="697.928" transform="matrix(0.78243442,0.62273299,-0.71953255,0.69445872,0,0)" style="fill:#fff;fill-opacity:1;stroke:#00002a;stroke-width:.17907989;stroke-opacity:1"/><rect style="fill:#fff;fill-opacity:1;stroke:#00002a;stroke-width:.1720418;stroke-opacity:1" id="rect1147" width="9.205" height="22.679" x="-768.592" y="488.174" transform="matrix(0.4444336,-0.8958118,0.81676755,0.57696686,0,0)"/><rect id="rect4269" width="21.774" height="9.279" x="-295.958" y="941.008" ry="0" transform="matrix(0.96940116,-0.24548197,0.33375679,0.94265922,0,0)" style="fill:#fff;fill-opacity:1;stroke:#00002a;stroke-width:.17998259;stroke-opacity:1"/></g><g id="g5086" transform="matrix(0.40937329,0,0,0.43877247,39.93096,608.2531)"><path id="path5083" d="m -38.117696,1084.396 a 11.821956,15.611126 0 0 1 -11.796701,15.6111 11.821956,15.611126 0 0 1 -11.847102,-15.5444 11.821956,15.611126 0 0 1 11.746084,-15.6775 11.821956,15.611126 0 0 1 11.897288,15.4774" transform="matrix(-0.99597202,0.08966461,0.02758311,0.99961951,0,0)" style="fill:#fff;fill-opacity:1;stroke:#00002a;stroke-width:.7613731;stroke-opacity:1"/></g><path id="path1137" d="m 40.23928,991.20913 c 3.508883,0.25117 7.269468,-0.28908 9.346462,-0.18042 6.499825,0.34003 5.838401,0.81713 5.838401,0.81713 l -10.153928,-6.44521 -3.204905,-8.60446 -1.85939,-12.30647 -1.402687,-10.59196 10.446987,-0.94873 6.7317,-8.56831 3.50736,15.57843 9.58579,-9.87132 9.53553,9.77817 8.62868,-9.11396 -5.09709,12.35902 2.88858,8.29693 -23.070014,20.10577 20.617756,3.00891 14.910768,-13.06352 4.46406,-11.79836 3.28594,-16.20164 -6.49851,-9.17847 -12.25149,-11.57153 -17.79172,-4.59603 -9.20828,-0.40397 -19.25077,3.49568 -12.869767,11.20893 -4.129473,17.29539 4.23593,19.96381 z" style="opacity:.97000002;fill:#512304;fill-opacity:1;stroke:#512304;stroke-width:1px;stroke-linecap:butt;stroke-linejoin:miter;stroke-opacity:1"/></g></svg>